<?xml version="1.0" encoding="UTF-8" standalone="no"?>
<svg
   xmlns:dc="http://purl.org/dc/elements/1.1/"
   xmlns:cc="http://creativecommons.org/ns#"
   xmlns:rdf="http://www.w3.org/1999/02/22-rdf-syntax-ns#"
   xmlns:svg="http://www.w3.org/2000/svg"
   xmlns="http://www.w3.org/2000/svg"
   xmlns:sodipodi="http://sodipodi.sourceforge.net/DTD/sodipodi-0.dtd"
   xmlns:inkscape="http://www.inkscape.org/namespaces/inkscape"
   width="800mm"
   height="600mm"
   version="1.1"
   id="svg177"
   sodipodi:docname="Limite-Debut.svg"
   inkscape:version="0.92.3 (2405546, 2018-03-11)">
  <metadata
     id="metadata181">
    <rdf:RDF>
      <cc:Work
         rdf:about="">
        <dc:format>image/svg+xml</dc:format>
        <dc:type
           rdf:resource="http://purl.org/dc/dcmitype/StillImage" />
        <dc:title></dc:title>
      </cc:Work>
    </rdf:RDF>
  </metadata>
  <sodipodi:namedview
     pagecolor="#ffffff"
     bordercolor="#666666"
     borderopacity="1"
     objecttolerance="10"
     gridtolerance="10"
     guidetolerance="10"
     inkscape:pageopacity="0"
     inkscape:pageshadow="2"
     inkscape:window-width="1920"
     inkscape:window-height="1136"
     id="namedview179"
     showgrid="false"
     units="mm"
     inkscape:zoom="0.21001859"
     inkscape:cx="2617.4576"
     inkscape:cy="1791.8297"
     inkscape:window-x="0"
     inkscape:window-y="27"
     inkscape:window-maximized="1"
     inkscape:current-layer="g175" />
  <desc
     id="desc29">/home/dimercur/Documents/Travail/git/insa-nxpcup/meca/Piste/Limite-Debut.dxf - scale = 1.000000, origin = (0.000000, 0.000000), method = manual</desc>
  <defs
     id="defs65">
    <marker
       id="DistanceX"
       orient="auto"
       refX="0"
       refY="0"
       style="overflow:visible">
      <path
         d="M 3,-3 -3,3 M 0,-5 V 5"
         style="stroke:#000000;stroke-width:0.5"
         id="path31"
         inkscape:connector-curvature="0" />
    </marker>
    <pattern
       height="8"
       id="Hatch"
       patternUnits="userSpaceOnUse"
       width="8"
       x="0"
       y="0">
      <path
         d="M8 4 l-4,4"
         linecap="square"
         stroke="#000000"
         stroke-width="0.25"
         id="path34" />
      <path
         d="M6 2 l-4,4"
         linecap="square"
         stroke="#000000"
         stroke-width="0.25"
         id="path36" />
      <path
         d="M4 0 l-4,4"
         linecap="square"
         stroke="#000000"
         stroke-width="0.25"
         id="path38" />
    </pattern>
    <symbol
       id="*Model_Space" />
    <symbol
       id="*Paper_Space" />
    <symbol
       id="*D2">
      <path
         d="M 0,895.74803 H 2721.2598"
         style="fill:none;stroke:#ffff00;stroke-linecap:round"
         id="path43"
         inkscape:connector-curvature="0" />
      <text
         style="font-size:23.60000038px;line-height:125%;font-family:Arial;fill:#ffff00"
         x="1360.6299"
         y="883.93701"
         id="text47">
        <tspan
           sodipodi:role="line"
           id="tspan45"
           x="1360.6299"
           y="883.93701">720.0000</tspan>
      </text>
      <path
         d="M 0,1116.6142 V 883.93701"
         style="fill:none;stroke:#ffff00;stroke-linecap:round"
         id="path49"
         inkscape:connector-curvature="0" />
      <path
         d="M 2721.2598,1116.6142 V 883.93701"
         style="fill:none;stroke:#ffff00;stroke-linecap:round"
         id="path51"
         inkscape:connector-curvature="0" />
    </symbol>
    <symbol
       id="*D1">
      <path
         d="M -151.1811,1122.5197 V 3201.2598"
         style="fill:none;stroke:#ffff00;stroke-linecap:round"
         id="path54"
         inkscape:connector-curvature="0" />
      <text
         style="font-size:23.60000038px;line-height:125%;font-family:Arial;fill:#ffff00"
         transform="rotate(-90,-162.99213,2161.8898)"
         x="-162.99213"
         y="2161.8896"
         id="text58">
        <tspan
           sodipodi:role="line"
           id="tspan56"
           x="-162.99213"
           y="2161.8896">550.0000</tspan>
      </text>
      <path
         d="M -5.905512,1122.5197 H -162.99213"
         style="fill:none;stroke:#ffff00;stroke-linecap:round"
         id="path60"
         inkscape:connector-curvature="0" />
      <path
         d="M -5.905512,3201.2598 H -162.99213"
         style="fill:none;stroke:#ffff00;stroke-linecap:round"
         id="path62"
         inkscape:connector-curvature="0" />
    </symbol>
  </defs>
  <g
     inkscape:groupmode="layer"
     inkscape:label="0"
     id="g147"
     transform="translate(0,1145.1968)">
    <path
       d="M 121.20757,-1032.2816 H 2842.4674"
       style="fill:none;stroke:#000000;stroke-linecap:round"
       id="path67"
       inkscape:connector-curvature="0" />
    <path
       d="M 2842.4674,1046.4585 H 121.20757"
       style="fill:none;stroke:#000000;stroke-linecap:round"
       id="path69"
       inkscape:connector-curvature="0" />
    <path
       d="m 121.20757,-1032.2816 v 188.97641"
       style="fill:none;stroke:#000000;stroke-linecap:round"
       id="path71"
       inkscape:connector-curvature="0" />
    <path
       d="m 234.5934,-843.30519 a 28.346458,28.346458 0 0 0 -56.69291,0"
       style="fill:none;stroke:#000000;stroke-linecap:round"
       id="path73"
       inkscape:connector-curvature="0" />
    <path
       d="m 234.5934,-843.30519 v 340.1574"
       style="fill:none;stroke:#000000;stroke-linecap:round"
       id="path75"
       inkscape:connector-curvature="0" />
    <path
       d="m 177.90049,-503.14779 a 28.346459,28.346459 0 0 0 56.69291,0"
       style="fill:none;stroke:#000000;stroke-linecap:round"
       id="path77"
       inkscape:connector-curvature="0" />
    <path
       d="m 121.20757,-843.30519 a 28.346457,28.346457 0 0 0 56.69292,0"
       style="fill:none;stroke:#000000;stroke-linecap:round"
       id="path79"
       inkscape:connector-curvature="0" />
    <path
       d="m 177.90049,-503.14779 a 28.346457,28.346457 0 0 0 -56.69292,0"
       style="fill:none;stroke:#000000;stroke-linecap:round"
       id="path81"
       inkscape:connector-curvature="0" />
    <path
       d="m 121.20757,-503.14779 v 340.1575"
       style="fill:none;stroke:#000000;stroke-linecap:round"
       id="path83"
       inkscape:connector-curvature="0" />
    <path
       d="m 234.5934,-162.99029 a 28.346458,28.346458 0 0 0 -56.69291,0"
       style="fill:none;stroke:#000000;stroke-linecap:round"
       id="path85"
       inkscape:connector-curvature="0" />
    <path
       d="m 234.5934,-162.99029 v 340.1575"
       style="fill:none;stroke:#000000;stroke-linecap:round"
       id="path87"
       inkscape:connector-curvature="0" />
    <path
       d="m 177.90049,177.16721 a 28.346459,28.346459 0 0 0 56.69291,0"
       style="fill:none;stroke:#000000;stroke-linecap:round"
       id="path89"
       inkscape:connector-curvature="0" />
    <path
       d="m 121.20757,-162.99029 a 28.346457,28.346457 0 0 0 56.69292,0"
       style="fill:none;stroke:#000000;stroke-linecap:round"
       id="path91"
       inkscape:connector-curvature="0" />
    <path
       d="m 177.90049,177.16721 a 28.346457,28.346457 0 0 0 -56.69292,0"
       style="fill:none;stroke:#000000;stroke-linecap:round"
       id="path93"
       inkscape:connector-curvature="0" />
    <path
       d="m 121.20757,177.16721 v 340.1575"
       style="fill:none;stroke:#000000;stroke-linecap:round"
       id="path95"
       inkscape:connector-curvature="0" />
    <path
       d="m 234.5934,517.32471 a 28.346458,28.346458 0 0 0 -56.69291,0"
       style="fill:none;stroke:#000000;stroke-linecap:round"
       id="path97"
       inkscape:connector-curvature="0" />
    <path
       d="m 234.5934,517.32471 v 340.1575"
       style="fill:none;stroke:#000000;stroke-linecap:round"
       id="path99"
       inkscape:connector-curvature="0" />
    <path
       d="m 177.90049,857.48221 a 28.346459,28.346459 0 0 0 56.69291,0"
       style="fill:none;stroke:#000000;stroke-linecap:round"
       id="path101"
       inkscape:connector-curvature="0" />
    <path
       d="m 121.20757,517.32471 a 28.346457,28.346457 0 0 0 56.69292,0"
       style="fill:none;stroke:#000000;stroke-linecap:round"
       id="path103"
       inkscape:connector-curvature="0" />
    <path
       d="m 177.90049,857.48221 a 28.346457,28.346457 0 0 0 -56.69292,0"
       style="fill:none;stroke:#000000;stroke-linecap:round"
       id="path105"
       inkscape:connector-curvature="0" />
    <path
       d="M 121.20757,857.48221 V 1046.4585"
       style="fill:none;stroke:#000000;stroke-linecap:round"
       id="path107"
       inkscape:connector-curvature="0" />
    <path
       d="m 2842.4674,-1032.2816 v 188.97641"
       style="fill:none;stroke:#000000;stroke-linecap:round"
       id="path109"
       inkscape:connector-curvature="0" />
    <path
       d="m 2955.8533,-843.30519 a 28.346457,28.346457 0 0 0 -56.6929,0"
       style="fill:none;stroke:#000000;stroke-linecap:round"
       id="path111"
       inkscape:connector-curvature="0" />
    <path
       d="m 2955.8533,-843.30519 v 340.1574"
       style="fill:none;stroke:#000000;stroke-linecap:round"
       id="path113"
       inkscape:connector-curvature="0" />
    <path
       d="m 2899.1604,-503.14779 a 28.346457,28.346457 0 0 0 56.6929,0"
       style="fill:none;stroke:#000000;stroke-linecap:round"
       id="path115"
       inkscape:connector-curvature="0" />
    <path
       d="m 2842.4674,-843.30519 a 28.3465,28.3465 0 0 0 56.693,0"
       style="fill:none;stroke:#000000;stroke-linecap:round"
       id="path117"
       inkscape:connector-curvature="0" />
    <path
       d="m 2899.1604,-503.14779 a 28.3465,28.3465 0 0 0 -56.693,0"
       style="fill:none;stroke:#000000;stroke-linecap:round"
       id="path119"
       inkscape:connector-curvature="0" />
    <path
       d="m 2842.4674,-503.14779 v 340.1575"
       style="fill:none;stroke:#000000;stroke-linecap:round"
       id="path121"
       inkscape:connector-curvature="0" />
    <path
       d="m 2955.8533,-162.99029 a 28.346457,28.346457 0 0 0 -56.6929,0"
       style="fill:none;stroke:#000000;stroke-linecap:round"
       id="path123"
       inkscape:connector-curvature="0" />
    <path
       d="m 2955.8533,-162.99029 v 340.1575"
       style="fill:none;stroke:#000000;stroke-linecap:round"
       id="path125"
       inkscape:connector-curvature="0" />
    <path
       d="m 2899.1604,177.16721 a 28.346457,28.346457 0 0 0 56.6929,0"
       style="fill:none;stroke:#000000;stroke-linecap:round"
       id="path127"
       inkscape:connector-curvature="0" />
    <path
       d="m 2842.4674,-162.99029 a 28.3465,28.3465 0 0 0 56.693,0"
       style="fill:none;stroke:#000000;stroke-linecap:round"
       id="path129"
       inkscape:connector-curvature="0" />
    <path
       d="m 2899.1604,177.16721 a 28.3465,28.3465 0 0 0 -56.693,0"
       style="fill:none;stroke:#000000;stroke-linecap:round"
       id="path131"
       inkscape:connector-curvature="0" />
    <path
       d="m 2842.4674,177.16721 v 340.1575"
       style="fill:none;stroke:#000000;stroke-linecap:round"
       id="path133"
       inkscape:connector-curvature="0" />
    <path
       d="m 2955.8533,517.32471 a 28.346457,28.346457 0 0 0 -56.6929,0"
       style="fill:none;stroke:#000000;stroke-linecap:round"
       id="path135"
       inkscape:connector-curvature="0" />
    <path
       d="m 2955.8533,517.32471 v 340.1575"
       style="fill:none;stroke:#000000;stroke-linecap:round"
       id="path137"
       inkscape:connector-curvature="0" />
    <path
       d="m 2899.1604,857.48221 a 28.346457,28.346457 0 0 0 56.6929,0"
       style="fill:none;stroke:#000000;stroke-linecap:round"
       id="path139"
       inkscape:connector-curvature="0" />
    <path
       d="m 2842.4674,517.32471 a 28.3465,28.3465 0 0 0 56.693,0"
       style="fill:none;stroke:#000000;stroke-linecap:round"
       id="path141"
       inkscape:connector-curvature="0" />
    <path
       d="m 2899.1604,857.48221 a 28.3465,28.3465 0 0 0 -56.693,0"
       style="fill:none;stroke:#000000;stroke-linecap:round"
       id="path143"
       inkscape:connector-curvature="0" />
    <path
       d="M 2842.4674,857.48221 V 1046.4585"
       style="fill:none;stroke:#000000;stroke-linecap:round"
       id="path145"
       inkscape:connector-curvature="0" />
  </g>
  <g
     inkscape:groupmode="layer"
     inkscape:label="Bandes noires"
     id="g161"
     transform="translate(0,1145.1968)">
    <path
       d="M 121.20757,-956.69109 H 2842.4674"
       style="fill:none;stroke:#ff0000;stroke-linecap:round"
       id="path149"
       inkscape:connector-curvature="0" />
    <path
       d="M 121.20757,970.86801 H 2842.4674"
       style="fill:none;stroke:#ff0000;stroke-linecap:round"
       id="path151"
       inkscape:connector-curvature="0" />
    <path
       d="M 914.90836,-654.32889 H 2048.7667 v 188.9764 H 914.90836 Z"
       style="fill:none;stroke:#ff0000;stroke-linecap:round"
       id="path153"
       inkscape:connector-curvature="0" />
    <path
       d="M 914.90836,-276.37609 H 2048.7667 V -87.399693 H 914.90836 Z"
       style="fill:none;stroke:#ff0000;stroke-linecap:round"
       id="path155"
       inkscape:connector-curvature="0" />
    <path
       d="M 914.90836,101.57671 H 2048.7667 v 188.9763 H 914.90836 Z"
       style="fill:none;stroke:#ff0000;stroke-linecap:round"
       id="path157"
       inkscape:connector-curvature="0" />
    <path
       d="M 914.90836,479.52941 H 2048.7667 v 188.9764 H 914.90836 Z"
       style="fill:none;stroke:#ff0000;stroke-linecap:round"
       id="path159"
       inkscape:connector-curvature="0" />
  </g>
  <g
     inkscape:groupmode="layer"
     inkscape:label="Dimensions"
     id="g175"
     transform="translate(0,1145.1968)" />
</svg>
