<?xml version="1.0" encoding="UTF-8" standalone="no"?>
<svg
   xmlns:dc="http://purl.org/dc/elements/1.1/"
   xmlns:cc="http://creativecommons.org/ns#"
   xmlns:rdf="http://www.w3.org/1999/02/22-rdf-syntax-ns#"
   xmlns:svg="http://www.w3.org/2000/svg"
   xmlns="http://www.w3.org/2000/svg"
   xmlns:sodipodi="http://sodipodi.sourceforge.net/DTD/sodipodi-0.dtd"
   xmlns:inkscape="http://www.inkscape.org/namespaces/inkscape"
   width="600mm"
   height="800mm"
   version="1.1"
   id="svg257"
   sodipodi:docname="Chicane.svg"
   inkscape:version="0.92.3 (2405546, 2018-03-11)">
  <metadata
     id="metadata261">
    <rdf:RDF>
      <cc:Work
         rdf:about="">
        <dc:format>image/svg+xml</dc:format>
        <dc:type
           rdf:resource="http://purl.org/dc/dcmitype/StillImage" />
        <dc:title></dc:title>
      </cc:Work>
    </rdf:RDF>
  </metadata>
  <sodipodi:namedview
     pagecolor="#ffffff"
     bordercolor="#666666"
     borderopacity="1"
     objecttolerance="10"
     gridtolerance="10"
     guidetolerance="10"
     inkscape:pageopacity="0"
     inkscape:pageshadow="2"
     inkscape:window-width="1920"
     inkscape:window-height="1136"
     id="namedview259"
     showgrid="false"
     units="mm"
     inkscape:zoom="0.21001859"
     inkscape:cx="396.20855"
     inkscape:cy="1680.6298"
     inkscape:window-x="0"
     inkscape:window-y="27"
     inkscape:window-maximized="1"
     inkscape:current-layer="g255" />
  <desc
     id="desc143">/home/dimercur/Documents/Travail/git/insa-nxpcup/meca/Piste/Chicane.dxf - scale = 1.000000, origin = (0.000000, 0.000000), method = manual</desc>
  <defs
     id="defs157">
    <marker
       id="DistanceX"
       orient="auto"
       refX="0"
       refY="0"
       style="overflow:visible">
      <path
         d="M 3,-3 -3,3 M 0,-5 V 5"
         style="stroke:#000000;stroke-width:0.5"
         id="path145"
         inkscape:connector-curvature="0" />
    </marker>
    <pattern
       height="8"
       id="Hatch"
       patternUnits="userSpaceOnUse"
       width="8"
       x="0"
       y="0">
      <path
         d="M8 4 l-4,4"
         linecap="square"
         stroke="#000000"
         stroke-width="0.25"
         id="path148" />
      <path
         d="M6 2 l-4,4"
         linecap="square"
         stroke="#000000"
         stroke-width="0.25"
         id="path150" />
      <path
         d="M4 0 l-4,4"
         linecap="square"
         stroke="#000000"
         stroke-width="0.25"
         id="path152" />
    </pattern>
    <symbol
       id="*Model_Space" />
    <symbol
       id="*Paper_Space" />
  </defs>
  <g
     inkscape:groupmode="layer"
     inkscape:label="0"
     id="g243"
     transform="translate(0,1901.1023)">
    <path
       d="m 142.84449,-1510.5805 v 188.9764"
       style="fill:none;stroke:#000000;stroke-linecap:round"
       id="path159"
       inkscape:connector-curvature="0" />
    <path
       d="m 256.23032,-1321.6041 a 28.346458,28.346458 0 0 0 -56.69291,0"
       style="fill:none;stroke:#000000;stroke-linecap:round"
       id="path161"
       inkscape:connector-curvature="0" />
    <path
       d="m 256.23032,-1321.6041 v 340.15742"
       style="fill:none;stroke:#000000;stroke-linecap:round"
       id="path163"
       inkscape:connector-curvature="0" />
    <path
       d="m 199.53741,-981.44668 a 28.346459,28.346459 0 0 0 56.69291,0"
       style="fill:none;stroke:#000000;stroke-linecap:round"
       id="path165"
       inkscape:connector-curvature="0" />
    <path
       d="m 142.84449,-1321.6041 a 28.346457,28.346457 0 0 0 56.69292,0"
       style="fill:none;stroke:#000000;stroke-linecap:round"
       id="path167"
       inkscape:connector-curvature="0" />
    <path
       d="m 199.53741,-981.44668 a 28.346457,28.346457 0 0 0 -56.69292,0"
       style="fill:none;stroke:#000000;stroke-linecap:round"
       id="path169"
       inkscape:connector-curvature="0" />
    <path
       d="m 142.84449,-981.44668 v 340.1575"
       style="fill:none;stroke:#000000;stroke-linecap:round"
       id="path171"
       inkscape:connector-curvature="0" />
    <path
       d="m 256.23032,-641.28918 a 28.346458,28.346458 0 0 0 -56.69291,0"
       style="fill:none;stroke:#000000;stroke-linecap:round"
       id="path173"
       inkscape:connector-curvature="0" />
    <path
       d="m 256.23032,-641.28918 v 340.1575"
       style="fill:none;stroke:#000000;stroke-linecap:round"
       id="path175"
       inkscape:connector-curvature="0" />
    <path
       d="m 199.53741,-301.13168 a 28.346459,28.346459 0 0 0 56.69291,0"
       style="fill:none;stroke:#000000;stroke-linecap:round"
       id="path177"
       inkscape:connector-curvature="0" />
    <path
       d="m 142.84449,-641.28918 a 28.346457,28.346457 0 0 0 56.69292,0"
       style="fill:none;stroke:#000000;stroke-linecap:round"
       id="path179"
       inkscape:connector-curvature="0" />
    <path
       d="m 199.53741,-301.13168 a 28.346457,28.346457 0 0 0 -56.69292,0"
       style="fill:none;stroke:#000000;stroke-linecap:round"
       id="path181"
       inkscape:connector-curvature="0" />
    <path
       d="M 142.84449,-301.13168 V 39.025819"
       style="fill:none;stroke:#000000;stroke-linecap:round"
       id="path183"
       inkscape:connector-curvature="0" />
    <path
       d="m 256.23032,39.025819 a 28.346458,28.346458 0 0 0 -56.69291,0"
       style="fill:none;stroke:#000000;stroke-linecap:round"
       id="path185"
       inkscape:connector-curvature="0" />
    <path
       d="M 256.23032,39.025819 V 379.18332"
       style="fill:none;stroke:#000000;stroke-linecap:round"
       id="path187"
       inkscape:connector-curvature="0" />
    <path
       d="m 199.53741,379.18332 a 28.346459,28.346459 0 0 0 56.69291,0"
       style="fill:none;stroke:#000000;stroke-linecap:round"
       id="path189"
       inkscape:connector-curvature="0" />
    <path
       d="m 142.84449,39.025819 a 28.346457,28.346457 0 0 0 56.69292,0"
       style="fill:none;stroke:#000000;stroke-linecap:round"
       id="path191"
       inkscape:connector-curvature="0" />
    <path
       d="m 199.53741,379.18332 a 28.346457,28.346457 0 0 0 -56.69292,0"
       style="fill:none;stroke:#000000;stroke-linecap:round"
       id="path193"
       inkscape:connector-curvature="0" />
    <path
       d="m 142.84449,379.18332 v 188.9763"
       style="fill:none;stroke:#000000;stroke-linecap:round"
       id="path195"
       inkscape:connector-curvature="0" />
    <path
       d="m 142.84449,-1510.5805 a 1511.7725,1511.7725 0 0 0 1360.62991,0"
       style="fill:none;stroke:#000000;stroke-linecap:round"
       id="path197"
       inkscape:connector-curvature="0" />
    <path
       d="m 142.84449,568.15962 a 1511.7725,1511.7725 0 0 0 1360.62991,0"
       style="fill:none;stroke:#000000;stroke-linecap:round"
       id="path199"
       inkscape:connector-curvature="0" />
    <path
       d="m 2070.4036,-1678.7398 a 1512.4513,1512.4513 0 0 0 -566.9292,168.1593"
       style="fill:none;stroke:#000000;stroke-linecap:round"
       id="path201"
       inkscape:connector-curvature="0" />
    <path
       d="m 2070.4036,400.00032 a 1512.4513,1512.4513 0 0 0 -566.9292,168.1593"
       style="fill:none;stroke:#000000;stroke-linecap:round"
       id="path203"
       inkscape:connector-curvature="0" />
    <path
       d="m 2070.4036,-1678.7695 v 188.9764"
       style="fill:none;stroke:#000000;stroke-linecap:round"
       id="path205"
       inkscape:connector-curvature="0" />
    <path
       d="m 2183.7894,-1489.7931 a 28.346457,28.346457 0 0 0 -56.6929,0"
       style="fill:none;stroke:#000000;stroke-linecap:round"
       id="path207"
       inkscape:connector-curvature="0" />
    <path
       d="m 2183.7894,-1489.7931 v 340.1575"
       style="fill:none;stroke:#000000;stroke-linecap:round"
       id="path209"
       inkscape:connector-curvature="0" />
    <path
       d="m 2127.0965,-1149.6356 a 28.346457,28.346457 0 0 0 56.6929,0"
       style="fill:none;stroke:#000000;stroke-linecap:round"
       id="path211"
       inkscape:connector-curvature="0" />
    <path
       d="m 2070.4036,-1489.7931 a 28.346457,28.346457 0 0 0 56.6929,0"
       style="fill:none;stroke:#000000;stroke-linecap:round"
       id="path213"
       inkscape:connector-curvature="0" />
    <path
       d="m 2127.0965,-1149.6356 a 28.346457,28.346457 0 0 0 -56.6929,0"
       style="fill:none;stroke:#000000;stroke-linecap:round"
       id="path215"
       inkscape:connector-curvature="0" />
    <path
       d="m 2070.4036,-1149.6356 v 340.15742"
       style="fill:none;stroke:#000000;stroke-linecap:round"
       id="path217"
       inkscape:connector-curvature="0" />
    <path
       d="m 2183.7894,-809.47818 a 28.346457,28.346457 0 0 0 -56.6929,0"
       style="fill:none;stroke:#000000;stroke-linecap:round"
       id="path219"
       inkscape:connector-curvature="0" />
    <path
       d="m 2183.7894,-809.47818 v 340.1575"
       style="fill:none;stroke:#000000;stroke-linecap:round"
       id="path221"
       inkscape:connector-curvature="0" />
    <path
       d="m 2127.0965,-469.32068 a 28.346457,28.346457 0 0 0 56.6929,0"
       style="fill:none;stroke:#000000;stroke-linecap:round"
       id="path223"
       inkscape:connector-curvature="0" />
    <path
       d="m 2070.4036,-809.47818 a 28.346457,28.346457 0 0 0 56.6929,0"
       style="fill:none;stroke:#000000;stroke-linecap:round"
       id="path225"
       inkscape:connector-curvature="0" />
    <path
       d="m 2127.0965,-469.32068 a 28.346457,28.346457 0 0 0 -56.6929,0"
       style="fill:none;stroke:#000000;stroke-linecap:round"
       id="path227"
       inkscape:connector-curvature="0" />
    <path
       d="m 2070.4036,-469.32068 v 340.1575"
       style="fill:none;stroke:#000000;stroke-linecap:round"
       id="path229"
       inkscape:connector-curvature="0" />
    <path
       d="m 2183.7894,-129.16318 a 28.346457,28.346457 0 0 0 -56.6929,0"
       style="fill:none;stroke:#000000;stroke-linecap:round"
       id="path231"
       inkscape:connector-curvature="0" />
    <path
       d="m 2183.7894,-129.16318 v 340.1575"
       style="fill:none;stroke:#000000;stroke-linecap:round"
       id="path233"
       inkscape:connector-curvature="0" />
    <path
       d="m 2127.0965,210.99432 a 28.346457,28.346457 0 0 0 56.6929,0"
       style="fill:none;stroke:#000000;stroke-linecap:round"
       id="path235"
       inkscape:connector-curvature="0" />
    <path
       d="m 2070.4036,-129.16318 a 28.346457,28.346457 0 0 0 56.6929,0"
       style="fill:none;stroke:#000000;stroke-linecap:round"
       id="path237"
       inkscape:connector-curvature="0" />
    <path
       d="m 2127.0965,210.99432 a 28.346457,28.346457 0 0 0 -56.6929,0"
       style="fill:none;stroke:#000000;stroke-linecap:round"
       id="path239"
       inkscape:connector-curvature="0" />
    <path
       d="m 2070.4036,210.99432 v 188.9764"
       style="fill:none;stroke:#000000;stroke-linecap:round"
       id="path241"
       inkscape:connector-curvature="0" />
  </g>
  <g
     inkscape:groupmode="layer"
     inkscape:label="Bandes noires"
     id="g253"
     transform="translate(0,1901.1023)">
    <path
       d="m 142.85406,-1434.9843 a 1511.7732,1511.7732 0 0 0 1360.61084,0"
       style="fill:none;stroke:#ff0000;stroke-linecap:round"
       id="path245"
       inkscape:connector-curvature="0" />
    <path
       d="m 2070.4031,-1603.1477 a 1512.4498,1512.4498 0 0 0 -566.9384,168.1647"
       style="fill:none;stroke:#ff0000;stroke-linecap:round"
       id="path247"
       inkscape:connector-curvature="0" />
    <path
       d="m 142.85406,492.57482 a 1511.7732,1511.7732 0 0 0 1360.61084,0"
       style="fill:none;stroke:#ff0000;stroke-linecap:round"
       id="path249"
       inkscape:connector-curvature="0" />
    <path
       d="m 2070.4031,324.41142 a 1512.4498,1512.4498 0 0 0 -566.9384,168.1646"
       style="fill:none;stroke:#ff0000;stroke-linecap:round"
       id="path251"
       inkscape:connector-curvature="0" />
  </g>
  <g
     inkscape:groupmode="layer"
     inkscape:label="Dimensions"
     id="g255"
     transform="translate(0,1901.1023)" />
</svg>
