<?xml version="1.0" encoding="UTF-8" standalone="no"?>
<svg
   xmlns:dc="http://purl.org/dc/elements/1.1/"
   xmlns:cc="http://creativecommons.org/ns#"
   xmlns:rdf="http://www.w3.org/1999/02/22-rdf-syntax-ns#"
   xmlns:svg="http://www.w3.org/2000/svg"
   xmlns="http://www.w3.org/2000/svg"
   xmlns:sodipodi="http://sodipodi.sourceforge.net/DTD/sodipodi-0.dtd"
   xmlns:inkscape="http://www.inkscape.org/namespaces/inkscape"
   width="800mm"
   height="600mm"
   version="1.1"
   id="svg142"
   sodipodi:docname="Droit.svg"
   inkscape:version="0.92.3 (2405546, 2018-03-11)">
  <metadata
     id="metadata146">
    <rdf:RDF>
      <cc:Work
         rdf:about="">
        <dc:format>image/svg+xml</dc:format>
        <dc:type
           rdf:resource="http://purl.org/dc/dcmitype/StillImage" />
        <dc:title></dc:title>
      </cc:Work>
    </rdf:RDF>
  </metadata>
  <sodipodi:namedview
     pagecolor="#ffffff"
     bordercolor="#666666"
     borderopacity="1"
     objecttolerance="10"
     gridtolerance="10"
     guidetolerance="10"
     inkscape:pageopacity="0"
     inkscape:pageshadow="2"
     inkscape:window-width="1920"
     inkscape:window-height="1136"
     id="namedview144"
     showgrid="false"
     units="mm"
     inkscape:document-units="mm"
     inkscape:zoom="0.29732611"
     inkscape:cx="1758.8856"
     inkscape:cy="1273.5975"
     inkscape:window-x="0"
     inkscape:window-y="27"
     inkscape:window-maximized="1"
     inkscape:current-layer="g140" />
  <desc
     id="desc2">/home/dimercur/Documents/Travail/git/insa-nxpcup/meca/Piste/Droit.dxf - scale = 1.000000, origin = (0.000000, 0.000000), method = manual</desc>
  <defs
     id="defs38">
    <marker
       id="DistanceX"
       orient="auto"
       refX="0"
       refY="0"
       style="overflow:visible">
      <path
         d="M 3,-3 -3,3 M 0,-5 V 5"
         style="stroke:#000000;stroke-width:0.5"
         id="path4"
         inkscape:connector-curvature="0" />
    </marker>
    <pattern
       height="8"
       id="Hatch"
       patternUnits="userSpaceOnUse"
       width="8"
       x="0"
       y="0">
      <path
         d="M8 4 l-4,4"
         linecap="square"
         stroke="#000000"
         stroke-width="0.25"
         id="path7" />
      <path
         d="M6 2 l-4,4"
         linecap="square"
         stroke="#000000"
         stroke-width="0.25"
         id="path9" />
      <path
         d="M4 0 l-4,4"
         linecap="square"
         stroke="#000000"
         stroke-width="0.25"
         id="path11" />
    </pattern>
    <symbol
       id="*Model_Space" />
    <symbol
       id="*Paper_Space" />
    <symbol
       id="*D1">
      <path
         d="M -151.1811,1122.5197 V 3201.2598"
         style="fill:none;stroke:#ffff00;stroke-linecap:round"
         id="path16"
         inkscape:connector-curvature="0" />
      <text
         style="font-size:18.89999962px;line-height:125%;font-family:Arial;fill:#ffff00"
         transform="rotate(-90,-162.99213,2161.8898)"
         x="-162.99213"
         y="2161.8896"
         id="text20">
        <tspan
           sodipodi:role="line"
           id="tspan18"
           x="-162.99213"
           y="2161.8896">550.0000</tspan>
      </text>
      <path
         d="M -2.362205,1122.5197 H -155.90551"
         style="fill:none;stroke:#ffff00;stroke-linecap:round"
         id="path22"
         inkscape:connector-curvature="0" />
      <path
         d="M -2.362205,3201.2598 H -155.90551"
         style="fill:none;stroke:#ffff00;stroke-linecap:round"
         id="path24"
         inkscape:connector-curvature="0" />
    </symbol>
    <symbol
       id="*D2">
      <path
         d="M 0,895.74803 H 2721.2598"
         style="fill:none;stroke:#ffff00;stroke-linecap:round"
         id="path27"
         inkscape:connector-curvature="0" />
      <text
         style="font-size:18.89999962px;line-height:125%;font-family:Arial;fill:#ffff00"
         x="1360.6299"
         y="883.93701"
         id="text31">
        <tspan
           sodipodi:role="line"
           id="tspan29"
           x="1360.6299"
           y="883.93701">720.0000</tspan>
      </text>
      <path
         d="M 0,1120.1575 V 891.02362"
         style="fill:none;stroke:#ffff00;stroke-linecap:round"
         id="path33"
         inkscape:connector-curvature="0" />
      <path
         d="M 2721.2598,1120.1575 V 891.02362"
         style="fill:none;stroke:#ffff00;stroke-linecap:round"
         id="path35"
         inkscape:connector-curvature="0" />
    </symbol>
  </defs>
  <g
     inkscape:groupmode="layer"
     inkscape:label="0"
     id="g120"
     transform="translate(0,1145.1969)">
    <path
       d="M 95.128784,-1055.9295 H 2816.3886"
       style="fill:none;stroke:#000000;stroke-linecap:round"
       id="path40"
       inkscape:connector-curvature="0" />
    <path
       d="M 2816.3886,1022.8106 H 95.128784"
       style="fill:none;stroke:#000000;stroke-linecap:round"
       id="path42"
       inkscape:connector-curvature="0" />
    <path
       d="m 95.128784,-1055.9295 v 188.97644"
       style="fill:none;stroke:#000000;stroke-linecap:round"
       id="path44"
       inkscape:connector-curvature="0" />
    <path
       d="m 208.51461,-866.95306 a 28.346458,28.346458 0 0 0 -56.69291,0"
       style="fill:none;stroke:#000000;stroke-linecap:round"
       id="path46"
       inkscape:connector-curvature="0" />
    <path
       d="m 208.51461,-866.95306 v 340.1574"
       style="fill:none;stroke:#000000;stroke-linecap:round"
       id="path48"
       inkscape:connector-curvature="0" />
    <path
       d="m 151.8217,-526.79566 a 28.346459,28.346459 0 0 0 56.69291,0"
       style="fill:none;stroke:#000000;stroke-linecap:round"
       id="path50"
       inkscape:connector-curvature="0" />
    <path
       d="m 95.128784,-866.95306 a 28.346457,28.346457 0 0 0 56.692916,0"
       style="fill:none;stroke:#000000;stroke-linecap:round"
       id="path52"
       inkscape:connector-curvature="0" />
    <path
       d="m 151.8217,-526.79566 a 28.346457,28.346457 0 0 0 -56.692916,0"
       style="fill:none;stroke:#000000;stroke-linecap:round"
       id="path54"
       inkscape:connector-curvature="0" />
    <path
       d="m 95.128784,-526.79566 v 340.1575"
       style="fill:none;stroke:#000000;stroke-linecap:round"
       id="path56"
       inkscape:connector-curvature="0" />
    <path
       d="m 208.51461,-186.63816 a 28.346458,28.346458 0 0 0 -56.69291,0"
       style="fill:none;stroke:#000000;stroke-linecap:round"
       id="path58"
       inkscape:connector-curvature="0" />
    <path
       d="m 208.51461,-186.63816 v 340.1575"
       style="fill:none;stroke:#000000;stroke-linecap:round"
       id="path60"
       inkscape:connector-curvature="0" />
    <path
       d="m 151.8217,153.51934 a 28.346459,28.346459 0 0 0 56.69291,0"
       style="fill:none;stroke:#000000;stroke-linecap:round"
       id="path62"
       inkscape:connector-curvature="0" />
    <path
       d="m 95.128784,-186.63816 a 28.346457,28.346457 0 0 0 56.692916,0"
       style="fill:none;stroke:#000000;stroke-linecap:round"
       id="path64"
       inkscape:connector-curvature="0" />
    <path
       d="m 151.8217,153.51934 a 28.346457,28.346457 0 0 0 -56.692916,0"
       style="fill:none;stroke:#000000;stroke-linecap:round"
       id="path66"
       inkscape:connector-curvature="0" />
    <path
       d="m 95.128784,153.51934 v 340.1575"
       style="fill:none;stroke:#000000;stroke-linecap:round"
       id="path68"
       inkscape:connector-curvature="0" />
    <path
       d="m 208.51461,493.67684 a 28.346458,28.346458 0 0 0 -56.69291,0"
       style="fill:none;stroke:#000000;stroke-linecap:round"
       id="path70"
       inkscape:connector-curvature="0" />
    <path
       d="m 208.51461,493.67684 v 340.1575"
       style="fill:none;stroke:#000000;stroke-linecap:round"
       id="path72"
       inkscape:connector-curvature="0" />
    <path
       d="m 151.8217,833.83434 a 28.346459,28.346459 0 0 0 56.69291,0"
       style="fill:none;stroke:#000000;stroke-linecap:round"
       id="path74"
       inkscape:connector-curvature="0" />
    <path
       d="m 95.128784,493.67684 a 28.346457,28.346457 0 0 0 56.692916,0"
       style="fill:none;stroke:#000000;stroke-linecap:round"
       id="path76"
       inkscape:connector-curvature="0" />
    <path
       d="m 151.8217,833.83434 a 28.346457,28.346457 0 0 0 -56.692916,0"
       style="fill:none;stroke:#000000;stroke-linecap:round"
       id="path78"
       inkscape:connector-curvature="0" />
    <path
       d="M 95.128784,833.83434 V 1022.8106"
       style="fill:none;stroke:#000000;stroke-linecap:round"
       id="path80"
       inkscape:connector-curvature="0" />
    <path
       d="m 2816.3886,-1055.9295 v 188.97644"
       style="fill:none;stroke:#000000;stroke-linecap:round"
       id="path82"
       inkscape:connector-curvature="0" />
    <path
       d="m 2929.7745,-866.95306 a 28.346457,28.346457 0 0 0 -56.6929,0"
       style="fill:none;stroke:#000000;stroke-linecap:round"
       id="path84"
       inkscape:connector-curvature="0" />
    <path
       d="m 2929.7745,-866.95306 v 340.1574"
       style="fill:none;stroke:#000000;stroke-linecap:round"
       id="path86"
       inkscape:connector-curvature="0" />
    <path
       d="m 2873.0816,-526.79566 a 28.346457,28.346457 0 0 0 56.6929,0"
       style="fill:none;stroke:#000000;stroke-linecap:round"
       id="path88"
       inkscape:connector-curvature="0" />
    <path
       d="m 2816.3886,-866.95306 a 28.3465,28.3465 0 0 0 56.693,0"
       style="fill:none;stroke:#000000;stroke-linecap:round"
       id="path90"
       inkscape:connector-curvature="0" />
    <path
       d="m 2873.0816,-526.79566 a 28.3465,28.3465 0 0 0 -56.693,0"
       style="fill:none;stroke:#000000;stroke-linecap:round"
       id="path92"
       inkscape:connector-curvature="0" />
    <path
       d="m 2816.3886,-526.79566 v 340.1575"
       style="fill:none;stroke:#000000;stroke-linecap:round"
       id="path94"
       inkscape:connector-curvature="0" />
    <path
       d="m 2929.7745,-186.63816 a 28.346457,28.346457 0 0 0 -56.6929,0"
       style="fill:none;stroke:#000000;stroke-linecap:round"
       id="path96"
       inkscape:connector-curvature="0" />
    <path
       d="m 2929.7745,-186.63816 v 340.1575"
       style="fill:none;stroke:#000000;stroke-linecap:round"
       id="path98"
       inkscape:connector-curvature="0" />
    <path
       d="m 2873.0816,153.51934 a 28.346457,28.346457 0 0 0 56.6929,0"
       style="fill:none;stroke:#000000;stroke-linecap:round"
       id="path100"
       inkscape:connector-curvature="0" />
    <path
       d="m 2816.3886,-186.63816 a 28.3465,28.3465 0 0 0 56.693,0"
       style="fill:none;stroke:#000000;stroke-linecap:round"
       id="path102"
       inkscape:connector-curvature="0" />
    <path
       d="m 2873.0816,153.51934 a 28.3465,28.3465 0 0 0 -56.693,0"
       style="fill:none;stroke:#000000;stroke-linecap:round"
       id="path104"
       inkscape:connector-curvature="0" />
    <path
       d="m 2816.3886,153.51934 v 340.1575"
       style="fill:none;stroke:#000000;stroke-linecap:round"
       id="path106"
       inkscape:connector-curvature="0" />
    <path
       d="m 2929.7745,493.67684 a 28.346457,28.346457 0 0 0 -56.6929,0"
       style="fill:none;stroke:#000000;stroke-linecap:round"
       id="path108"
       inkscape:connector-curvature="0" />
    <path
       d="m 2929.7745,493.67684 v 340.1575"
       style="fill:none;stroke:#000000;stroke-linecap:round"
       id="path110"
       inkscape:connector-curvature="0" />
    <path
       d="m 2873.0816,833.83434 a 28.346457,28.346457 0 0 0 56.6929,0"
       style="fill:none;stroke:#000000;stroke-linecap:round"
       id="path112"
       inkscape:connector-curvature="0" />
    <path
       d="m 2816.3886,493.67684 a 28.3465,28.3465 0 0 0 56.693,0"
       style="fill:none;stroke:#000000;stroke-linecap:round"
       id="path114"
       inkscape:connector-curvature="0" />
    <path
       d="m 2873.0816,833.83434 a 28.3465,28.3465 0 0 0 -56.693,0"
       style="fill:none;stroke:#000000;stroke-linecap:round"
       id="path116"
       inkscape:connector-curvature="0" />
    <path
       d="M 2816.3886,833.83434 V 1022.8106"
       style="fill:none;stroke:#000000;stroke-linecap:round"
       id="path118"
       inkscape:connector-curvature="0" />
  </g>
  <g
     inkscape:groupmode="layer"
     inkscape:label="Bandes noires"
     id="g126"
     transform="translate(0,1145.1969)">
    <path
       d="M 95.128784,-980.33896 H 2816.3886"
       style="fill:none;stroke:#ff0000;stroke-linecap:round"
       id="path122"
       inkscape:connector-curvature="0" />
    <path
       d="M 95.128784,947.22014 H 2816.3886"
       style="fill:none;stroke:#ff0000;stroke-linecap:round"
       id="path124"
       inkscape:connector-curvature="0" />
  </g>
  <g
     inkscape:groupmode="layer"
     inkscape:label="Dimensions"
     id="g140"
     transform="translate(0,1145.1969)" />
</svg>
