<?xml version="1.0" encoding="UTF-8" standalone="no"?>
<svg
   xmlns:dc="http://purl.org/dc/elements/1.1/"
   xmlns:cc="http://creativecommons.org/ns#"
   xmlns:rdf="http://www.w3.org/1999/02/22-rdf-syntax-ns#"
   xmlns:svg="http://www.w3.org/2000/svg"
   xmlns="http://www.w3.org/2000/svg"
   xmlns:sodipodi="http://sodipodi.sourceforge.net/DTD/sodipodi-0.dtd"
   xmlns:inkscape="http://www.inkscape.org/namespaces/inkscape"
   width="800mm"
   height="610mm"
   version="1.1"
   id="svg4506"
   sodipodi:docname="Intersection.svg"
   inkscape:version="0.92.3 (2405546, 2018-03-11)">
  <metadata
     id="metadata4510">
    <rdf:RDF>
      <cc:Work
         rdf:about="">
        <dc:format>image/svg+xml</dc:format>
        <dc:type
           rdf:resource="http://purl.org/dc/dcmitype/StillImage" />
        <dc:title />
      </cc:Work>
    </rdf:RDF>
  </metadata>
  <sodipodi:namedview
     pagecolor="#ffffff"
     bordercolor="#666666"
     borderopacity="1"
     objecttolerance="10"
     gridtolerance="10"
     guidetolerance="10"
     inkscape:pageopacity="0"
     inkscape:pageshadow="2"
     inkscape:window-width="1920"
     inkscape:window-height="1136"
     id="namedview4508"
     showgrid="false"
     units="mm"
     inkscape:zoom="0.29732611"
     inkscape:cx="56.073115"
     inkscape:cy="1656.9656"
     inkscape:window-x="0"
     inkscape:window-y="27"
     inkscape:window-maximized="1"
     inkscape:current-layer="g4504" />
  <desc
     id="desc4288">/home/dimercur/Documents/Travail/git/insa-nxpcup/meca/Piste/Intersection.dxf - scale = 1.000000, origin = (0.000000, 0.000000), method = manual</desc>
  <defs
     id="defs4324">
    <marker
       id="DistanceX"
       orient="auto"
       refX="0"
       refY="0"
       style="overflow:visible">
      <path
         d="M 3,-3 -3,3 M 0,-5 V 5"
         style="stroke:#000000;stroke-width:0.5"
         id="path4290"
         inkscape:connector-curvature="0" />
    </marker>
    <pattern
       height="8"
       id="Hatch"
       patternUnits="userSpaceOnUse"
       width="8"
       x="0"
       y="0">
      <path
         d="M8 4 l-4,4"
         linecap="square"
         stroke="#000000"
         stroke-width="0.25"
         id="path4293" />
      <path
         d="M6 2 l-4,4"
         linecap="square"
         stroke="#000000"
         stroke-width="0.25"
         id="path4295" />
      <path
         d="M4 0 l-4,4"
         linecap="square"
         stroke="#000000"
         stroke-width="0.25"
         id="path4297" />
    </pattern>
    <symbol
       id="*Model_Space" />
    <symbol
       id="*Paper_Space" />
    <symbol
       id="*D1">
      <path
         d="M -151.1811,1122.5197 V 3201.2598"
         style="fill:none;stroke:#ffff00;stroke-linecap:round"
         id="path4302"
         inkscape:connector-curvature="0" />
      <text
         style="font-size:18.89999962px;line-height:125%;font-family:Arial;fill:#ffff00"
         transform="rotate(-90,-162.99213,2161.8898)"
         x="-162.99213"
         y="2161.8896"
         id="text4306">
        <tspan
           sodipodi:role="line"
           id="tspan4304"
           x="-162.99213"
           y="2161.8896">550.0000</tspan>
      </text>
      <path
         d="M -2.362205,1122.5197 H -155.90551"
         style="fill:none;stroke:#ffff00;stroke-linecap:round"
         id="path4308"
         inkscape:connector-curvature="0" />
      <path
         d="M -2.362205,3201.2598 H -155.90551"
         style="fill:none;stroke:#ffff00;stroke-linecap:round"
         id="path4310"
         inkscape:connector-curvature="0" />
    </symbol>
    <symbol
       id="*D2">
      <path
         d="M 0,895.74803 H 2078.7402"
         style="fill:none;stroke:#ffff00;stroke-linecap:round"
         id="path4313"
         inkscape:connector-curvature="0" />
      <text
         style="font-size:18.89999962px;line-height:125%;font-family:Arial;fill:#ffff00"
         x="1039.3701"
         y="883.93701"
         id="text4317">
        <tspan
           sodipodi:role="line"
           id="tspan4315"
           x="1039.3701"
           y="883.93701">550.0000</tspan>
      </text>
      <path
         d="M 0,1120.1575 V 891.02362"
         style="fill:none;stroke:#ffff00;stroke-linecap:round"
         id="path4319"
         inkscape:connector-curvature="0" />
      <path
         d="M 2078.7402,1120.1575 V 891.02362"
         style="fill:none;stroke:#ffff00;stroke-linecap:round"
         id="path4321"
         inkscape:connector-curvature="0" />
    </symbol>
  </defs>
  <g
     inkscape:groupmode="layer"
     inkscape:label="0"
     id="g4478"
     transform="translate(0,1182.9921)">
    <path
       d="m 438.78151,-1069.0097 v 188.97644"
       style="fill:none;stroke:#000000;stroke-linecap:round"
       id="path4326"
       inkscape:connector-curvature="0" />
    <path
       d="m 552.16734,-880.03326 a 28.346458,28.346458 0 0 0 -56.69291,0"
       style="fill:none;stroke:#000000;stroke-linecap:round"
       id="path4328"
       inkscape:connector-curvature="0" />
    <path
       d="m 552.16734,-880.03326 v 340.1574"
       style="fill:none;stroke:#000000;stroke-linecap:round"
       id="path4330"
       inkscape:connector-curvature="0" />
    <path
       d="m 495.47443,-539.87586 a 28.346459,28.346459 0 0 0 56.69291,0"
       style="fill:none;stroke:#000000;stroke-linecap:round"
       id="path4332"
       inkscape:connector-curvature="0" />
    <path
       d="m 438.78151,-880.03326 a 28.34646,28.34646 0 0 0 56.69292,0"
       style="fill:none;stroke:#000000;stroke-linecap:round"
       id="path4334"
       inkscape:connector-curvature="0" />
    <path
       d="m 495.47443,-539.87586 a 28.34646,28.34646 0 0 0 -56.69292,0"
       style="fill:none;stroke:#000000;stroke-linecap:round"
       id="path4336"
       inkscape:connector-curvature="0" />
    <path
       d="m 438.78151,-539.87586 v 340.1575"
       style="fill:none;stroke:#000000;stroke-linecap:round"
       id="path4338"
       inkscape:connector-curvature="0" />
    <path
       d="m 552.16734,-199.71836 a 28.346458,28.346458 0 0 0 -56.69291,0"
       style="fill:none;stroke:#000000;stroke-linecap:round"
       id="path4340"
       inkscape:connector-curvature="0" />
    <path
       d="m 552.16734,-199.71836 v 340.1575"
       style="fill:none;stroke:#000000;stroke-linecap:round"
       id="path4342"
       inkscape:connector-curvature="0" />
    <path
       d="m 495.47443,140.43914 a 28.346459,28.346459 0 0 0 56.69291,0"
       style="fill:none;stroke:#000000;stroke-linecap:round"
       id="path4344"
       inkscape:connector-curvature="0" />
    <path
       d="m 438.78151,-199.71836 a 28.34646,28.34646 0 0 0 56.69292,0"
       style="fill:none;stroke:#000000;stroke-linecap:round"
       id="path4346"
       inkscape:connector-curvature="0" />
    <path
       d="m 495.47443,140.43914 a 28.34646,28.34646 0 0 0 -56.69292,0"
       style="fill:none;stroke:#000000;stroke-linecap:round"
       id="path4348"
       inkscape:connector-curvature="0" />
    <path
       d="m 438.78151,140.43914 v 340.1575"
       style="fill:none;stroke:#000000;stroke-linecap:round"
       id="path4350"
       inkscape:connector-curvature="0" />
    <path
       d="m 552.16734,480.59664 a 28.346458,28.346458 0 0 0 -56.69291,0"
       style="fill:none;stroke:#000000;stroke-linecap:round"
       id="path4352"
       inkscape:connector-curvature="0" />
    <path
       d="m 552.16734,480.59664 v 340.1575"
       style="fill:none;stroke:#000000;stroke-linecap:round"
       id="path4354"
       inkscape:connector-curvature="0" />
    <path
       d="m 495.47443,820.75414 a 28.346459,28.346459 0 0 0 56.69291,0"
       style="fill:none;stroke:#000000;stroke-linecap:round"
       id="path4356"
       inkscape:connector-curvature="0" />
    <path
       d="m 438.78151,480.59664 a 28.34646,28.34646 0 0 0 56.69292,0"
       style="fill:none;stroke:#000000;stroke-linecap:round"
       id="path4358"
       inkscape:connector-curvature="0" />
    <path
       d="m 495.47443,820.75414 a 28.34646,28.34646 0 0 0 -56.69292,0"
       style="fill:none;stroke:#000000;stroke-linecap:round"
       id="path4360"
       inkscape:connector-curvature="0" />
    <path
       d="M 438.78151,820.75414 V 1009.7304"
       style="fill:none;stroke:#000000;stroke-linecap:round"
       id="path4362"
       inkscape:connector-curvature="0" />
    <path
       d="M 438.78151,-1069.0097 H 627.75789"
       style="fill:none;stroke:#000000;stroke-linecap:round"
       id="path4364"
       inkscape:connector-curvature="0" />
    <path
       d="m 627.75789,-1182.3955 a 28.346457,28.346457 0 0 0 0,56.6929"
       style="fill:none;stroke:#000000;stroke-linecap:round"
       id="path4366"
       inkscape:connector-curvature="0" />
    <path
       d="M 627.75789,-1182.3955 H 967.91537"
       style="fill:none;stroke:#000000;stroke-linecap:round"
       id="path4368"
       inkscape:connector-curvature="0" />
    <path
       d="m 967.91537,-1125.7026 a 28.346457,28.346457 0 0 0 0,-56.6929"
       style="fill:none;stroke:#000000;stroke-linecap:round"
       id="path4370"
       inkscape:connector-curvature="0" />
    <path
       d="m 627.75789,-1069.0097 a 28.346457,28.346457 0 0 0 0,-56.6929"
       style="fill:none;stroke:#000000;stroke-linecap:round"
       id="path4372"
       inkscape:connector-curvature="0" />
    <path
       d="m 967.91537,-1125.7026 a 28.346457,28.346457 0 0 0 0,56.6929"
       style="fill:none;stroke:#000000;stroke-linecap:round"
       id="path4374"
       inkscape:connector-curvature="0" />
    <path
       d="M 967.91537,-1069.0097 H 1308.0728"
       style="fill:none;stroke:#000000;stroke-linecap:round"
       id="path4376"
       inkscape:connector-curvature="0" />
    <path
       d="m 1308.0728,-1182.3955 a 28.346457,28.346457 0 0 0 0,56.6929"
       style="fill:none;stroke:#000000;stroke-linecap:round"
       id="path4378"
       inkscape:connector-curvature="0" />
    <path
       d="m 1308.0728,-1182.3955 h 340.1575"
       style="fill:none;stroke:#000000;stroke-linecap:round"
       id="path4380"
       inkscape:connector-curvature="0" />
    <path
       d="m 1648.2303,-1125.7026 a 28.346457,28.346457 0 0 0 0,-56.6929"
       style="fill:none;stroke:#000000;stroke-linecap:round"
       id="path4382"
       inkscape:connector-curvature="0" />
    <path
       d="m 1308.0728,-1069.0097 a 28.346457,28.346457 0 0 0 0,-56.6929"
       style="fill:none;stroke:#000000;stroke-linecap:round"
       id="path4384"
       inkscape:connector-curvature="0" />
    <path
       d="m 1648.2303,-1125.7026 a 28.346457,28.346457 0 0 0 0,56.6929"
       style="fill:none;stroke:#000000;stroke-linecap:round"
       id="path4386"
       inkscape:connector-curvature="0" />
    <path
       d="m 1648.2303,-1069.0097 h 340.1575"
       style="fill:none;stroke:#000000;stroke-linecap:round"
       id="path4388"
       inkscape:connector-curvature="0" />
    <path
       d="m 1988.3878,-1182.3955 a 28.346457,28.346457 0 0 0 0,56.6929"
       style="fill:none;stroke:#000000;stroke-linecap:round"
       id="path4390"
       inkscape:connector-curvature="0" />
    <path
       d="m 1988.3878,-1182.3955 h 340.1575"
       style="fill:none;stroke:#000000;stroke-linecap:round"
       id="path4392"
       inkscape:connector-curvature="0" />
    <path
       d="m 2328.5453,-1125.7026 a 28.346457,28.346457 0 0 0 0,-56.6929"
       style="fill:none;stroke:#000000;stroke-linecap:round"
       id="path4394"
       inkscape:connector-curvature="0" />
    <path
       d="m 1988.3878,-1069.0097 a 28.346457,28.346457 0 0 0 0,-56.6929"
       style="fill:none;stroke:#000000;stroke-linecap:round"
       id="path4396"
       inkscape:connector-curvature="0" />
    <path
       d="m 2328.5453,-1125.7026 a 28.346457,28.346457 0 0 0 0,56.6929"
       style="fill:none;stroke:#000000;stroke-linecap:round"
       id="path4398"
       inkscape:connector-curvature="0" />
    <path
       d="m 2328.5453,-1069.0097 h 188.9764"
       style="fill:none;stroke:#000000;stroke-linecap:round"
       id="path4400"
       inkscape:connector-curvature="0" />
    <path
       d="M 2517.5217,1009.7304 H 2328.5453"
       style="fill:none;stroke:#000000;stroke-linecap:round"
       id="path4402"
       inkscape:connector-curvature="0" />
    <path
       d="m 2328.5453,1123.1163 a 28.346457,28.346457 0 0 0 0,-56.6929"
       style="fill:none;stroke:#000000;stroke-linecap:round"
       id="path4404"
       inkscape:connector-curvature="0" />
    <path
       d="M 2328.5453,1123.1163 H 1988.3878"
       style="fill:none;stroke:#000000;stroke-linecap:round"
       id="path4406"
       inkscape:connector-curvature="0" />
    <path
       d="m 1988.3878,1066.4234 a 28.346457,28.346457 0 0 0 0,56.6929"
       style="fill:none;stroke:#000000;stroke-linecap:round"
       id="path4408"
       inkscape:connector-curvature="0" />
    <path
       d="m 2328.5453,1009.7304 a 28.3465,28.3465 0 0 0 0,56.693"
       style="fill:none;stroke:#000000;stroke-linecap:round"
       id="path4410"
       inkscape:connector-curvature="0" />
    <path
       d="m 1988.3878,1066.4234 a 28.3465,28.3465 0 0 0 0,-56.693"
       style="fill:none;stroke:#000000;stroke-linecap:round"
       id="path4412"
       inkscape:connector-curvature="0" />
    <path
       d="M 1988.3878,1009.7304 H 1648.2303"
       style="fill:none;stroke:#000000;stroke-linecap:round"
       id="path4414"
       inkscape:connector-curvature="0" />
    <path
       d="m 1648.2303,1123.1163 a 28.346457,28.346457 0 0 0 0,-56.6929"
       style="fill:none;stroke:#000000;stroke-linecap:round"
       id="path4416"
       inkscape:connector-curvature="0" />
    <path
       d="M 1648.2303,1123.1163 H 1308.0728"
       style="fill:none;stroke:#000000;stroke-linecap:round"
       id="path4418"
       inkscape:connector-curvature="0" />
    <path
       d="m 1308.0728,1066.4234 a 28.346457,28.346457 0 0 0 0,56.6929"
       style="fill:none;stroke:#000000;stroke-linecap:round"
       id="path4420"
       inkscape:connector-curvature="0" />
    <path
       d="m 1648.2303,1009.7304 a 28.3465,28.3465 0 0 0 0,56.693"
       style="fill:none;stroke:#000000;stroke-linecap:round"
       id="path4422"
       inkscape:connector-curvature="0" />
    <path
       d="m 1308.0728,1066.4234 a 28.3465,28.3465 0 0 0 0,-56.693"
       style="fill:none;stroke:#000000;stroke-linecap:round"
       id="path4424"
       inkscape:connector-curvature="0" />
    <path
       d="M 1308.0728,1009.7304 H 967.91537"
       style="fill:none;stroke:#000000;stroke-linecap:round"
       id="path4426"
       inkscape:connector-curvature="0" />
    <path
       d="m 967.91537,1123.1163 a 28.346457,28.346457 0 0 0 0,-56.6929"
       style="fill:none;stroke:#000000;stroke-linecap:round"
       id="path4428"
       inkscape:connector-curvature="0" />
    <path
       d="M 967.91537,1123.1163 H 627.75789"
       style="fill:none;stroke:#000000;stroke-linecap:round"
       id="path4430"
       inkscape:connector-curvature="0" />
    <path
       d="m 627.75789,1066.4234 a 28.346457,28.346457 0 0 0 0,56.6929"
       style="fill:none;stroke:#000000;stroke-linecap:round"
       id="path4432"
       inkscape:connector-curvature="0" />
    <path
       d="m 967.91537,1009.7304 a 28.3465,28.3465 0 0 0 0,56.693"
       style="fill:none;stroke:#000000;stroke-linecap:round"
       id="path4434"
       inkscape:connector-curvature="0" />
    <path
       d="m 627.75789,1066.4234 a 28.3465,28.3465 0 0 0 0,-56.693"
       style="fill:none;stroke:#000000;stroke-linecap:round"
       id="path4436"
       inkscape:connector-curvature="0" />
    <path
       d="M 627.75789,1009.7304 H 438.78151"
       style="fill:none;stroke:#000000;stroke-linecap:round"
       id="path4438"
       inkscape:connector-curvature="0" />
    <path
       d="M 2517.5217,1009.7304 V 820.75414"
       style="fill:none;stroke:#000000;stroke-linecap:round"
       id="path4440"
       inkscape:connector-curvature="0" />
    <path
       d="m 2404.1358,820.75414 a 28.346457,28.346457 0 0 0 56.6929,0"
       style="fill:none;stroke:#000000;stroke-linecap:round"
       id="path4442"
       inkscape:connector-curvature="0" />
    <path
       d="M 2404.1358,820.75414 V 480.59664"
       style="fill:none;stroke:#000000;stroke-linecap:round"
       id="path4444"
       inkscape:connector-curvature="0" />
    <path
       d="m 2460.8287,480.59664 a 28.346457,28.346457 0 0 0 -56.6929,0"
       style="fill:none;stroke:#000000;stroke-linecap:round"
       id="path4446"
       inkscape:connector-curvature="0" />
    <path
       d="m 2517.5217,820.75414 a 28.3465,28.3465 0 0 0 -56.693,0"
       style="fill:none;stroke:#000000;stroke-linecap:round"
       id="path4448"
       inkscape:connector-curvature="0" />
    <path
       d="m 2460.8287,480.59664 a 28.3465,28.3465 0 0 0 56.693,0"
       style="fill:none;stroke:#000000;stroke-linecap:round"
       id="path4450"
       inkscape:connector-curvature="0" />
    <path
       d="M 2517.5217,480.59664 V 140.43914"
       style="fill:none;stroke:#000000;stroke-linecap:round"
       id="path4452"
       inkscape:connector-curvature="0" />
    <path
       d="m 2404.1358,140.43914 a 28.346457,28.346457 0 0 0 56.6929,0"
       style="fill:none;stroke:#000000;stroke-linecap:round"
       id="path4454"
       inkscape:connector-curvature="0" />
    <path
       d="m 2404.1358,140.43914 v -340.1575"
       style="fill:none;stroke:#000000;stroke-linecap:round"
       id="path4456"
       inkscape:connector-curvature="0" />
    <path
       d="m 2460.8287,-199.71836 a 28.346457,28.346457 0 0 0 -56.6929,0"
       style="fill:none;stroke:#000000;stroke-linecap:round"
       id="path4458"
       inkscape:connector-curvature="0" />
    <path
       d="m 2517.5217,140.43914 a 28.3465,28.3465 0 0 0 -56.693,0"
       style="fill:none;stroke:#000000;stroke-linecap:round"
       id="path4460"
       inkscape:connector-curvature="0" />
    <path
       d="m 2460.8287,-199.71836 a 28.3465,28.3465 0 0 0 56.693,0"
       style="fill:none;stroke:#000000;stroke-linecap:round"
       id="path4462"
       inkscape:connector-curvature="0" />
    <path
       d="m 2517.5217,-199.71836 v -340.1575"
       style="fill:none;stroke:#000000;stroke-linecap:round"
       id="path4464"
       inkscape:connector-curvature="0" />
    <path
       d="m 2404.1358,-539.87586 a 28.346457,28.346457 0 0 0 56.6929,0"
       style="fill:none;stroke:#000000;stroke-linecap:round"
       id="path4466"
       inkscape:connector-curvature="0" />
    <path
       d="m 2404.1358,-539.87586 v -340.1574"
       style="fill:none;stroke:#000000;stroke-linecap:round"
       id="path4468"
       inkscape:connector-curvature="0" />
    <path
       d="m 2460.8287,-880.03326 a 28.346457,28.346457 0 0 0 -56.6929,0"
       style="fill:none;stroke:#000000;stroke-linecap:round"
       id="path4470"
       inkscape:connector-curvature="0" />
    <path
       d="m 2517.5217,-539.87586 a 28.3465,28.3465 0 0 0 -56.693,0"
       style="fill:none;stroke:#000000;stroke-linecap:round"
       id="path4472"
       inkscape:connector-curvature="0" />
    <path
       d="m 2460.8287,-880.03326 a 28.3465,28.3465 0 0 0 56.693,0"
       style="fill:none;stroke:#000000;stroke-linecap:round"
       id="path4474"
       inkscape:connector-curvature="0" />
    <path
       d="M 2517.5217,-880.03326 V -1069.0097"
       style="fill:none;stroke:#000000;stroke-linecap:round"
       id="path4476"
       inkscape:connector-curvature="0" />
  </g>
  <g
     inkscape:groupmode="layer"
     inkscape:label="Bandes noires"
     id="g4496"
     transform="translate(0,1182.9921)">
    <path
       d="m 514.37206,-1069.0097 v 75.59054"
       style="fill:none;stroke:#ff0000;stroke-linecap:round"
       id="path4480"
       inkscape:connector-curvature="0" />
    <path
       d="M 514.37206,-993.41916 H 438.78151"
       style="fill:none;stroke:#ff0000;stroke-linecap:round"
       id="path4482"
       inkscape:connector-curvature="0" />
    <path
       d="m 438.78151,934.13994 h 75.59055"
       style="fill:none;stroke:#ff0000;stroke-linecap:round"
       id="path4484"
       inkscape:connector-curvature="0" />
    <path
       d="m 514.37206,934.13994 v 75.59046"
       style="fill:none;stroke:#ff0000;stroke-linecap:round"
       id="path4486"
       inkscape:connector-curvature="0" />
    <path
       d="M 2441.9311,1009.7304 V 934.13994"
       style="fill:none;stroke:#ff0000;stroke-linecap:round"
       id="path4488"
       inkscape:connector-curvature="0" />
    <path
       d="m 2441.9311,934.13994 h 75.5906"
       style="fill:none;stroke:#ff0000;stroke-linecap:round"
       id="path4490"
       inkscape:connector-curvature="0" />
    <path
       d="m 2441.9311,-1069.0097 v 75.59054"
       style="fill:none;stroke:#ff0000;stroke-linecap:round"
       id="path4492"
       inkscape:connector-curvature="0" />
    <path
       d="m 2441.9311,-993.41916 h 75.5906"
       style="fill:none;stroke:#ff0000;stroke-linecap:round"
       id="path4494"
       inkscape:connector-curvature="0" />
  </g>
  <g
     inkscape:groupmode="layer"
     inkscape:label="Dimensions"
     id="g4504"
     transform="translate(0,1182.9921)">
    <text
       style="font-size:18.89999962px;font-family:Arial;text-align:center;text-anchor:middle;fill:#ffff00"
       transform="rotate(-90,-162.99213,2161.8898)"
       x="-162.99213"
       y="2161.8896"
       id="text4502">
      <tspan
         sodipodi:role="line"
         id="tspan4500"
         x="-162.99213"
         y="2161.8896">550.0</tspan>
    </text>
  </g>
</svg>
