  0
SECTION
  2
HEADER
  9
$ACADVER
  1
AC1014
  9
$HANDSEED
  5
FFFF
  9
$MEASUREMENT
 70
     1
  0
ENDSEC
  0
SECTION
  2
TABLES
  0
TABLE
  2
VPORT
  5
8
330
0
100
AcDbSymbolTable
 70
     4
  0
VPORT
  5
2E
330
8
100
AcDbSymbolTableRecord
100
AcDbViewportTableRecord
  2
*ACTIVE
 70
     0
 10
0.0
 20
0.0
 11
1.0
 21
1.0
 12
210.0
 22
148.5
 13
0.0
 23
0.0
 14
10.0
 24
10.0
 15
10.0
 25
10.0
 16
0.0
 26
0.0
 36
1.0
 17
0.0
 27
0.0
 37
0.0
 40
341.0
 41
1.24
 42
50.0
 43
0.0
 44
0.0
 50
0.0
 51
0.0
 71
     0
 72
   100
 73
     1
 74
     3
 75
     0
 76
     0
 77
     0
 78
     0
  0
ENDTAB
  0
TABLE
  2
LTYPE
  5
5
330
0
100
AcDbSymbolTable
 70
     1
  0
LTYPE
  5
14
330
5
100
AcDbSymbolTableRecord
100
AcDbLinetypeTableRecord
  2
BYBLOCK
 70
     0
  3

 72
    65
 73
     0
 40
0.0
  0
LTYPE
  5
15
330
5
100
AcDbSymbolTableRecord
100
AcDbLinetypeTableRecord
  2
BYLAYER
 70
     0
  3

 72
    65
 73
     0
 40
0.0
  0
LTYPE
  5
16
330
5
100
AcDbSymbolTableRecord
100
AcDbLinetypeTableRecord
  2
CONTINUOUS
 70
     0
  3
Solid line
 72
    65
 73
     0
 40
0.0
  0
ENDTAB
  0
TABLE
  2
LAYER
  5
2
100
AcDbSymbolTable
 70
3
  0
LAYER
  5
50
100
AcDbSymbolTableRecord
100
AcDbLayerTableRecord
  2
0
 70
0
  6
CONTINUOUS
  0
LAYER
  5
51
100
AcDbSymbolTableRecord
100
AcDbLayerTableRecord
  2
Bandes_noires
 70
0
  6
CONTINUOUS
  0
LAYER
  5
52
100
AcDbSymbolTableRecord
100
AcDbLayerTableRecord
  2
Dimensions
 70
0
  6
CONTINUOUS
  0
ENDTAB
  0
TABLE
  2
STYLE
  5
3
330
0
100
AcDbSymbolTable
 70
     1
  0
STYLE
  5
11
330
3
100
AcDbSymbolTableRecord
100
AcDbTextStyleTableRecord
  2
STANDARD
 70
     0
 40
0.0
 41
1.0
 50
0.0
 71
     0
 42
2.5
  3
txt
  4

  0
ENDTAB
  0
TABLE
  2
VIEW
  5
6
330
0
100
AcDbSymbolTable
 70
     0
  0
ENDTAB
  0
TABLE
  2
UCS
  5
7
330
0
100
AcDbSymbolTable
 70
     0
  0
ENDTAB
  0
TABLE
  2
APPID
  5
9
330
0
100
AcDbSymbolTable
 70
     2
  0
APPID
  5
12
330
9
100
AcDbSymbolTableRecord
100
AcDbRegAppTableRecord
  2
ACAD
 70
     0
  0
ENDTAB
  0
TABLE
  2
DIMSTYLE
  5
A
330
0
100
AcDbSymbolTable
 70
     1
  0
DIMSTYLE
105
27
330
A
100
AcDbSymbolTableRecord
100
AcDbDimStyleTableRecord
  2
ISO-25
 70
     0
  3

  4

  5

  6

  7

 40
1.0
 41
2.5
 42
0.625
 43
3.75
 44
1.25
 45
0.0
 46
0.0
 47
0.0
 48
0.0
140
2.5
141
2.5
142
0.0
143
0.03937007874016
144
1.0
145
0.0
146
1.0
147
0.625
 71
     0
 72
     0
 73
     0
 74
     0
 75
     0
 76
     0
 77
     1
 78
     8
170
     0
171
     3
172
     1
173
     0
174
     0
175
     0
176
     0
177
     0
178
     0
270
     2
271
     2
272
     2
273
     2
274
     3
340
11
275
     0
280
     0
281
     0
282
     0
283
     0
284
     8
285
     0
286
     0
287
     3
288
     0
  0
ENDTAB
  0
TABLE
  2
BLOCK_RECORD
  5
1
330
0
100
AcDbSymbolTable
 70
     1
  0
BLOCK_RECORD
  5
1F
330
1
100
AcDbSymbolTableRecord
100
AcDbBlockTableRecord
  2
*MODEL_SPACE
  0
BLOCK_RECORD
  5
1B
330
1
100
AcDbSymbolTableRecord
100
AcDbBlockTableRecord
  2
*PAPER_SPACE
  0
ENDTAB
  0
ENDSEC
  0
SECTION
  2
BLOCKS
  0
BLOCK
  5
20
330
1F
100
AcDbEntity
  8
0
100
AcDbBlockBegin
  2
*MODEL_SPACE
 70
     0
 10
0.0
 20
0.0
 30
0.0
  3
*MODEL_SPACE
  1

  0
ENDBLK
  5
21
330
1F
100
AcDbEntity
  8
0
100
AcDbBlockEnd
  0
BLOCK
  5
1C
330
1B
100
AcDbEntity
 67
     1
  8
0
100
AcDbBlockBegin
  2
*PAPER_SPACE
  1

  0
ENDBLK
  5
1D
330
1B
100
AcDbEntity
 67
     1
  8
0
100
AcDbBlockEnd
  0
ENDSEC
  0
SECTION
  2
ENTITIES
  0
LINE
  5
100
100
AcDbEntity
  8
0
 62
7
100
AcDbLine
 10
37.794271
 20
696.674440
 30
0.0
 11
37.794271
 21
646.674435
 31
0.0
  0
SPLINE
  5
101
100
AcDbEntity
  8
0
 62
7
100
AcDbSpline
 70
8
 71
3
 72
8
 73
4
 74
0
 40
0
 40
0
 40
0
 40
0
 40
1
 40
1
 40
1
 40
1
 10
67.794272
 20
646.674435
 30
0.0
 10
67.792367
 20
650.815223
 30
0.0
 10
64.435061
 20
654.170984
 30
0.0
 10
60.294273
 20
654.170984
 30
0.0
  0
SPLINE
  5
102
100
AcDbEntity
  8
0
 62
7
100
AcDbSpline
 70
8
 71
3
 72
8
 73
4
 74
0
 40
0
 40
0
 40
0
 40
0
 40
1
 40
1
 40
1
 40
1
 10
60.294273
 20
654.170984
 30
0.0
 10
56.153484
 20
654.170984
 30
0.0
 10
52.796178
 20
650.815223
 30
0.0
 10
52.794273
 20
646.674435
 30
0.0
  0
LINE
  5
103
100
AcDbEntity
  8
0
 62
7
100
AcDbLine
 10
67.794272
 20
646.674435
 30
0.0
 11
67.794272
 21
556.674451
 31
0.0
  0
SPLINE
  5
104
100
AcDbEntity
  8
0
 62
7
100
AcDbSpline
 70
8
 71
3
 72
8
 73
4
 74
0
 40
0
 40
0
 40
0
 40
0
 40
1
 40
1
 40
1
 40
1
 10
52.794273
 20
556.674451
 30
0.0
 10
52.796473
 20
552.533871
 30
0.0
 10
56.153693
 20
549.178434
 30
0.0
 10
60.294273
 20
549.178434
 30
0.0
  0
SPLINE
  5
105
100
AcDbEntity
  8
0
 62
7
100
AcDbSpline
 70
8
 71
3
 72
8
 73
4
 74
0
 40
0
 40
0
 40
0
 40
0
 40
1
 40
1
 40
1
 40
1
 10
60.294273
 20
549.178434
 30
0.0
 10
64.434853
 20
549.178434
 30
0.0
 10
67.792073
 20
552.533871
 30
0.0
 10
67.794272
 20
556.674451
 30
0.0
  0
SPLINE
  5
106
100
AcDbEntity
  8
0
 62
7
100
AcDbSpline
 70
8
 71
3
 72
8
 73
4
 74
0
 40
0
 40
0
 40
0
 40
0
 40
1
 40
1
 40
1
 40
1
 10
37.794272
 20
646.674435
 30
0.0
 10
37.794272
 20
643.994943
 30
0.0
 10
39.223764
 20
641.518990
 30
0.0
 10
41.544272
 20
640.179244
 30
0.0
  0
SPLINE
  5
107
100
AcDbEntity
  8
0
 62
7
100
AcDbSpline
 70
8
 71
3
 72
8
 73
4
 74
0
 40
0
 40
0
 40
0
 40
0
 40
1
 40
1
 40
1
 40
1
 10
41.544272
 20
640.179244
 30
0.0
 10
43.864780
 20
638.839498
 30
0.0
 10
46.723764
 20
638.839498
 30
0.0
 10
49.044272
 20
640.179244
 30
0.0
  0
SPLINE
  5
108
100
AcDbEntity
  8
0
 62
7
100
AcDbSpline
 70
8
 71
3
 72
8
 73
4
 74
0
 40
0
 40
0
 40
0
 40
0
 40
1
 40
1
 40
1
 40
1
 10
49.044272
 20
640.179244
 30
0.0
 10
51.364780
 20
641.518990
 30
0.0
 10
52.794272
 20
643.994943
 30
0.0
 10
52.794272
 20
646.674435
 30
0.0
  0
SPLINE
  5
109
100
AcDbEntity
  8
0
 62
7
100
AcDbSpline
 70
8
 71
3
 72
8
 73
4
 74
0
 40
0
 40
0
 40
0
 40
0
 40
1
 40
1
 40
1
 40
1
 10
52.794272
 20
556.674451
 30
0.0
 10
52.794272
 20
559.353943
 30
0.0
 10
51.364780
 20
561.829895
 30
0.0
 10
49.044272
 20
563.169641
 30
0.0
  0
SPLINE
  5
10a
100
AcDbEntity
  8
0
 62
7
100
AcDbSpline
 70
8
 71
3
 72
8
 73
4
 74
0
 40
0
 40
0
 40
0
 40
0
 40
1
 40
1
 40
1
 40
1
 10
49.044272
 20
563.169641
 30
0.0
 10
46.723764
 20
564.509387
 30
0.0
 10
43.864780
 20
564.509387
 30
0.0
 10
41.544272
 20
563.169641
 30
0.0
  0
SPLINE
  5
10b
100
AcDbEntity
  8
0
 62
7
100
AcDbSpline
 70
8
 71
3
 72
8
 73
4
 74
0
 40
0
 40
0
 40
0
 40
0
 40
1
 40
1
 40
1
 40
1
 10
41.544272
 20
563.169641
 30
0.0
 10
39.223764
 20
561.829895
 30
0.0
 10
37.794272
 20
559.353943
 30
0.0
 10
37.794272
 20
556.674451
 30
0.0
  0
LINE
  5
10c
100
AcDbEntity
  8
0
 62
7
100
AcDbLine
 10
37.794271
 20
556.674451
 30
0.0
 11
37.794271
 21
466.674445
 31
0.0
  0
SPLINE
  5
10d
100
AcDbEntity
  8
0
 62
7
100
AcDbSpline
 70
8
 71
3
 72
8
 73
4
 74
0
 40
0
 40
0
 40
0
 40
0
 40
1
 40
1
 40
1
 40
1
 10
67.794272
 20
466.674445
 30
0.0
 10
67.792367
 20
470.815233
 30
0.0
 10
64.435061
 20
474.170995
 30
0.0
 10
60.294273
 20
474.170995
 30
0.0
  0
SPLINE
  5
10e
100
AcDbEntity
  8
0
 62
7
100
AcDbSpline
 70
8
 71
3
 72
8
 73
4
 74
0
 40
0
 40
0
 40
0
 40
0
 40
1
 40
1
 40
1
 40
1
 10
60.294273
 20
474.170995
 30
0.0
 10
56.153484
 20
474.170995
 30
0.0
 10
52.796178
 20
470.815233
 30
0.0
 10
52.794273
 20
466.674445
 30
0.0
  0
LINE
  5
10f
100
AcDbEntity
  8
0
 62
7
100
AcDbLine
 10
67.794272
 20
466.674445
 30
0.0
 11
67.794272
 21
376.674440
 31
0.0
  0
SPLINE
  5
110
100
AcDbEntity
  8
0
 62
7
100
AcDbSpline
 70
8
 71
3
 72
8
 73
4
 74
0
 40
0
 40
0
 40
0
 40
0
 40
1
 40
1
 40
1
 40
1
 10
52.794273
 20
376.674440
 30
0.0
 10
52.796473
 20
372.533861
 30
0.0
 10
56.153693
 20
369.178424
 30
0.0
 10
60.294273
 20
369.178424
 30
0.0
  0
SPLINE
  5
111
100
AcDbEntity
  8
0
 62
7
100
AcDbSpline
 70
8
 71
3
 72
8
 73
4
 74
0
 40
0
 40
0
 40
0
 40
0
 40
1
 40
1
 40
1
 40
1
 10
60.294273
 20
369.178424
 30
0.0
 10
64.434853
 20
369.178424
 30
0.0
 10
67.792073
 20
372.533861
 30
0.0
 10
67.794272
 20
376.674440
 30
0.0
  0
SPLINE
  5
112
100
AcDbEntity
  8
0
 62
7
100
AcDbSpline
 70
8
 71
3
 72
8
 73
4
 74
0
 40
0
 40
0
 40
0
 40
0
 40
1
 40
1
 40
1
 40
1
 10
37.794272
 20
466.674445
 30
0.0
 10
37.794272
 20
463.994953
 30
0.0
 10
39.223764
 20
461.519001
 30
0.0
 10
41.544272
 20
460.179255
 30
0.0
  0
SPLINE
  5
113
100
AcDbEntity
  8
0
 62
7
100
AcDbSpline
 70
8
 71
3
 72
8
 73
4
 74
0
 40
0
 40
0
 40
0
 40
0
 40
1
 40
1
 40
1
 40
1
 10
41.544272
 20
460.179255
 30
0.0
 10
43.864780
 20
458.839509
 30
0.0
 10
46.723764
 20
458.839509
 30
0.0
 10
49.044272
 20
460.179255
 30
0.0
  0
SPLINE
  5
114
100
AcDbEntity
  8
0
 62
7
100
AcDbSpline
 70
8
 71
3
 72
8
 73
4
 74
0
 40
0
 40
0
 40
0
 40
0
 40
1
 40
1
 40
1
 40
1
 10
49.044272
 20
460.179255
 30
0.0
 10
51.364780
 20
461.519001
 30
0.0
 10
52.794272
 20
463.994953
 30
0.0
 10
52.794272
 20
466.674445
 30
0.0
  0
SPLINE
  5
115
100
AcDbEntity
  8
0
 62
7
100
AcDbSpline
 70
8
 71
3
 72
8
 73
4
 74
0
 40
0
 40
0
 40
0
 40
0
 40
1
 40
1
 40
1
 40
1
 10
52.794272
 20
376.674440
 30
0.0
 10
52.794272
 20
379.353932
 30
0.0
 10
51.364780
 20
381.829885
 30
0.0
 10
49.044272
 20
383.169631
 30
0.0
  0
SPLINE
  5
116
100
AcDbEntity
  8
0
 62
7
100
AcDbSpline
 70
8
 71
3
 72
8
 73
4
 74
0
 40
0
 40
0
 40
0
 40
0
 40
1
 40
1
 40
1
 40
1
 10
49.044272
 20
383.169631
 30
0.0
 10
46.723764
 20
384.509377
 30
0.0
 10
43.864780
 20
384.509377
 30
0.0
 10
41.544272
 20
383.169631
 30
0.0
  0
SPLINE
  5
117
100
AcDbEntity
  8
0
 62
7
100
AcDbSpline
 70
8
 71
3
 72
8
 73
4
 74
0
 40
0
 40
0
 40
0
 40
0
 40
1
 40
1
 40
1
 40
1
 10
41.544272
 20
383.169631
 30
0.0
 10
39.223764
 20
381.829885
 30
0.0
 10
37.794272
 20
379.353932
 30
0.0
 10
37.794272
 20
376.674440
 30
0.0
  0
LINE
  5
118
100
AcDbEntity
  8
0
 62
7
100
AcDbLine
 10
37.794271
 20
376.674440
 30
0.0
 11
37.794271
 21
286.674435
 31
0.0
  0
SPLINE
  5
119
100
AcDbEntity
  8
0
 62
7
100
AcDbSpline
 70
8
 71
3
 72
8
 73
4
 74
0
 40
0
 40
0
 40
0
 40
0
 40
1
 40
1
 40
1
 40
1
 10
67.794272
 20
286.674435
 30
0.0
 10
67.792367
 20
290.815223
 30
0.0
 10
64.435061
 20
294.170985
 30
0.0
 10
60.294273
 20
294.170985
 30
0.0
  0
SPLINE
  5
11a
100
AcDbEntity
  8
0
 62
7
100
AcDbSpline
 70
8
 71
3
 72
8
 73
4
 74
0
 40
0
 40
0
 40
0
 40
0
 40
1
 40
1
 40
1
 40
1
 10
60.294273
 20
294.170985
 30
0.0
 10
56.153484
 20
294.170985
 30
0.0
 10
52.796178
 20
290.815223
 30
0.0
 10
52.794273
 20
286.674435
 30
0.0
  0
LINE
  5
11b
100
AcDbEntity
  8
0
 62
7
100
AcDbLine
 10
67.794272
 20
286.674435
 30
0.0
 11
67.794272
 21
196.674430
 31
0.0
  0
SPLINE
  5
11c
100
AcDbEntity
  8
0
 62
7
100
AcDbSpline
 70
8
 71
3
 72
8
 73
4
 74
0
 40
0
 40
0
 40
0
 40
0
 40
1
 40
1
 40
1
 40
1
 10
52.794273
 20
196.674430
 30
0.0
 10
52.796473
 20
192.533850
 30
0.0
 10
56.153693
 20
189.178413
 30
0.0
 10
60.294273
 20
189.178413
 30
0.0
  0
SPLINE
  5
11d
100
AcDbEntity
  8
0
 62
7
100
AcDbSpline
 70
8
 71
3
 72
8
 73
4
 74
0
 40
0
 40
0
 40
0
 40
0
 40
1
 40
1
 40
1
 40
1
 10
60.294273
 20
189.178413
 30
0.0
 10
64.434853
 20
189.178413
 30
0.0
 10
67.792073
 20
192.533850
 30
0.0
 10
67.794272
 20
196.674430
 30
0.0
  0
SPLINE
  5
11e
100
AcDbEntity
  8
0
 62
7
100
AcDbSpline
 70
8
 71
3
 72
8
 73
4
 74
0
 40
0
 40
0
 40
0
 40
0
 40
1
 40
1
 40
1
 40
1
 10
37.794272
 20
286.674435
 30
0.0
 10
37.794272
 20
283.994943
 30
0.0
 10
39.223764
 20
281.518991
 30
0.0
 10
41.544272
 20
280.179245
 30
0.0
  0
SPLINE
  5
11f
100
AcDbEntity
  8
0
 62
7
100
AcDbSpline
 70
8
 71
3
 72
8
 73
4
 74
0
 40
0
 40
0
 40
0
 40
0
 40
1
 40
1
 40
1
 40
1
 10
41.544272
 20
280.179245
 30
0.0
 10
43.864780
 20
278.839499
 30
0.0
 10
46.723764
 20
278.839499
 30
0.0
 10
49.044272
 20
280.179245
 30
0.0
  0
SPLINE
  5
120
100
AcDbEntity
  8
0
 62
7
100
AcDbSpline
 70
8
 71
3
 72
8
 73
4
 74
0
 40
0
 40
0
 40
0
 40
0
 40
1
 40
1
 40
1
 40
1
 10
49.044272
 20
280.179245
 30
0.0
 10
51.364780
 20
281.518991
 30
0.0
 10
52.794272
 20
283.994943
 30
0.0
 10
52.794272
 20
286.674435
 30
0.0
  0
SPLINE
  5
121
100
AcDbEntity
  8
0
 62
7
100
AcDbSpline
 70
8
 71
3
 72
8
 73
4
 74
0
 40
0
 40
0
 40
0
 40
0
 40
1
 40
1
 40
1
 40
1
 10
52.794272
 20
196.674430
 30
0.0
 10
52.794272
 20
199.353922
 30
0.0
 10
51.364780
 20
201.829874
 30
0.0
 10
49.044272
 20
203.169620
 30
0.0
  0
SPLINE
  5
122
100
AcDbEntity
  8
0
 62
7
100
AcDbSpline
 70
8
 71
3
 72
8
 73
4
 74
0
 40
0
 40
0
 40
0
 40
0
 40
1
 40
1
 40
1
 40
1
 10
49.044272
 20
203.169620
 30
0.0
 10
46.723764
 20
204.509366
 30
0.0
 10
43.864780
 20
204.509366
 30
0.0
 10
41.544272
 20
203.169620
 30
0.0
  0
SPLINE
  5
123
100
AcDbEntity
  8
0
 62
7
100
AcDbSpline
 70
8
 71
3
 72
8
 73
4
 74
0
 40
0
 40
0
 40
0
 40
0
 40
1
 40
1
 40
1
 40
1
 10
41.544272
 20
203.169620
 30
0.0
 10
39.223764
 20
201.829874
 30
0.0
 10
37.794272
 20
199.353922
 30
0.0
 10
37.794272
 20
196.674430
 30
0.0
  0
LINE
  5
124
100
AcDbEntity
  8
0
 62
7
100
AcDbLine
 10
37.794271
 20
196.674430
 30
0.0
 11
37.794271
 21
146.674450
 31
0.0
  0
SPLINE
  5
125
100
AcDbEntity
  8
0
 62
7
100
AcDbSpline
 70
8
 71
3
 72
8
 73
4
 74
0
 40
0
 40
0
 40
0
 40
0
 40
1
 40
1
 40
1
 40
1
 10
37.794271
 20
696.674440
 30
0.0
 10
151.012912
 20
639.621376
 30
0.0
 10
284.575628
 20
639.621376
 30
0.0
 10
397.794268
 20
696.674440
 30
0.0
  0
SPLINE
  5
126
100
AcDbEntity
  8
0
 62
7
100
AcDbSpline
 70
8
 71
3
 72
8
 73
4
 74
0
 40
0
 40
0
 40
0
 40
0
 40
1
 40
1
 40
1
 40
1
 10
37.794271
 20
146.674450
 30
0.0
 10
151.012912
 20
89.621386
 30
0.0
 10
284.575628
 20
89.621386
 30
0.0
 10
397.794268
 20
146.674450
 30
0.0
  0
SPLINE
  5
127
100
AcDbEntity
  8
0
 62
7
100
AcDbSpline
 70
8
 71
3
 72
8
 73
4
 74
0
 40
0
 40
0
 40
0
 40
0
 40
1
 40
1
 40
1
 40
1
 10
547.794286
 20
741.166589
 30
0.0
 10
495.353822
 20
736.350136
 30
0.0
 10
444.379688
 20
721.230480
 30
0.0
 10
397.794268
 20
696.674440
 30
0.0
  0
SPLINE
  5
128
100
AcDbEntity
  8
0
 62
7
100
AcDbSpline
 70
8
 71
3
 72
8
 73
4
 74
0
 40
0
 40
0
 40
0
 40
0
 40
1
 40
1
 40
1
 40
1
 10
547.794286
 20
191.166598
 30
0.0
 10
495.353822
 20
186.350146
 30
0.0
 10
444.379688
 20
171.230490
 30
0.0
 10
397.794268
 20
146.674450
 30
0.0
  0
LINE
  5
129
100
AcDbEntity
  8
0
 62
7
100
AcDbLine
 10
547.794286
 20
741.174447
 30
0.0
 11
547.794286
 21
691.174441
 31
0.0
  0
SPLINE
  5
12a
100
AcDbEntity
  8
0
 62
7
100
AcDbSpline
 70
8
 71
3
 72
8
 73
4
 74
0
 40
0
 40
0
 40
0
 40
0
 40
1
 40
1
 40
1
 40
1
 10
577.794279
 20
691.174441
 30
0.0
 10
577.791369
 20
695.314517
 30
0.0
 10
574.434358
 20
698.669170
 30
0.0
 10
570.294281
 20
698.669170
 30
0.0
  0
SPLINE
  5
12b
100
AcDbEntity
  8
0
 62
7
100
AcDbSpline
 70
8
 71
3
 72
8
 73
4
 74
0
 40
0
 40
0
 40
0
 40
0
 40
1
 40
1
 40
1
 40
1
 10
570.294281
 20
698.669170
 30
0.0
 10
566.154203
 20
698.669170
 30
0.0
 10
562.797192
 20
695.314517
 30
0.0
 10
562.794282
 20
691.174441
 30
0.0
  0
LINE
  5
12c
100
AcDbEntity
  8
0
 62
7
100
AcDbLine
 10
577.794279
 20
691.174441
 30
0.0
 11
577.794279
 21
601.174436
 31
0.0
  0
SPLINE
  5
12d
100
AcDbEntity
  8
0
 62
7
100
AcDbSpline
 70
8
 71
3
 72
8
 73
4
 74
0
 40
0
 40
0
 40
0
 40
0
 40
1
 40
1
 40
1
 40
1
 10
562.794282
 20
601.174436
 30
0.0
 10
562.797192
 20
597.034359
 30
0.0
 10
566.154203
 20
593.679706
 30
0.0
 10
570.294281
 20
593.679706
 30
0.0
  0
SPLINE
  5
12e
100
AcDbEntity
  8
0
 62
7
100
AcDbSpline
 70
8
 71
3
 72
8
 73
4
 74
0
 40
0
 40
0
 40
0
 40
0
 40
1
 40
1
 40
1
 40
1
 10
570.294281
 20
593.679706
 30
0.0
 10
574.434358
 20
593.679706
 30
0.0
 10
577.791369
 20
597.034359
 30
0.0
 10
577.794279
 20
601.174436
 30
0.0
  0
SPLINE
  5
12f
100
AcDbEntity
  8
0
 62
7
100
AcDbSpline
 70
8
 71
3
 72
8
 73
4
 74
0
 40
0
 40
0
 40
0
 40
0
 40
1
 40
1
 40
1
 40
1
 10
547.794286
 20
691.174441
 30
0.0
 10
547.797195
 20
687.034364
 30
0.0
 10
551.154207
 20
683.679712
 30
0.0
 10
555.294284
 20
683.679712
 30
0.0
  0
SPLINE
  5
130
100
AcDbEntity
  8
0
 62
7
100
AcDbSpline
 70
8
 71
3
 72
8
 73
4
 74
0
 40
0
 40
0
 40
0
 40
0
 40
1
 40
1
 40
1
 40
1
 10
555.294284
 20
683.679712
 30
0.0
 10
559.434362
 20
683.679712
 30
0.0
 10
562.791373
 20
687.034364
 30
0.0
 10
562.794282
 20
691.174441
 30
0.0
  0
SPLINE
  5
131
100
AcDbEntity
  8
0
 62
7
100
AcDbSpline
 70
8
 71
3
 72
8
 73
4
 74
0
 40
0
 40
0
 40
0
 40
0
 40
1
 40
1
 40
1
 40
1
 10
562.794282
 20
601.174436
 30
0.0
 10
562.791373
 20
605.314512
 30
0.0
 10
559.434362
 20
608.669165
 30
0.0
 10
555.294284
 20
608.669165
 30
0.0
  0
SPLINE
  5
132
100
AcDbEntity
  8
0
 62
7
100
AcDbSpline
 70
8
 71
3
 72
8
 73
4
 74
0
 40
0
 40
0
 40
0
 40
0
 40
1
 40
1
 40
1
 40
1
 10
555.294284
 20
608.669165
 30
0.0
 10
551.154207
 20
608.669165
 30
0.0
 10
547.797195
 20
605.314512
 30
0.0
 10
547.794286
 20
601.174436
 30
0.0
  0
LINE
  5
133
100
AcDbEntity
  8
0
 62
7
100
AcDbLine
 10
547.794286
 20
601.174436
 30
0.0
 11
547.794286
 21
511.174452
 31
0.0
  0
SPLINE
  5
134
100
AcDbEntity
  8
0
 62
7
100
AcDbSpline
 70
8
 71
3
 72
8
 73
4
 74
0
 40
0
 40
0
 40
0
 40
0
 40
1
 40
1
 40
1
 40
1
 10
577.794279
 20
511.174452
 30
0.0
 10
577.791369
 20
515.314528
 30
0.0
 10
574.434358
 20
518.669181
 30
0.0
 10
570.294281
 20
518.669181
 30
0.0
  0
SPLINE
  5
135
100
AcDbEntity
  8
0
 62
7
100
AcDbSpline
 70
8
 71
3
 72
8
 73
4
 74
0
 40
0
 40
0
 40
0
 40
0
 40
1
 40
1
 40
1
 40
1
 10
570.294281
 20
518.669181
 30
0.0
 10
566.154203
 20
518.669181
 30
0.0
 10
562.797192
 20
515.314528
 30
0.0
 10
562.794282
 20
511.174452
 30
0.0
  0
LINE
  5
136
100
AcDbEntity
  8
0
 62
7
100
AcDbLine
 10
577.794279
 20
511.174452
 30
0.0
 11
577.794279
 21
421.174446
 31
0.0
  0
SPLINE
  5
137
100
AcDbEntity
  8
0
 62
7
100
AcDbSpline
 70
8
 71
3
 72
8
 73
4
 74
0
 40
0
 40
0
 40
0
 40
0
 40
1
 40
1
 40
1
 40
1
 10
562.794282
 20
421.174446
 30
0.0
 10
562.797192
 20
417.034370
 30
0.0
 10
566.154203
 20
413.679717
 30
0.0
 10
570.294281
 20
413.679717
 30
0.0
  0
SPLINE
  5
138
100
AcDbEntity
  8
0
 62
7
100
AcDbSpline
 70
8
 71
3
 72
8
 73
4
 74
0
 40
0
 40
0
 40
0
 40
0
 40
1
 40
1
 40
1
 40
1
 10
570.294281
 20
413.679717
 30
0.0
 10
574.434358
 20
413.679717
 30
0.0
 10
577.791369
 20
417.034370
 30
0.0
 10
577.794279
 20
421.174446
 30
0.0
  0
SPLINE
  5
139
100
AcDbEntity
  8
0
 62
7
100
AcDbSpline
 70
8
 71
3
 72
8
 73
4
 74
0
 40
0
 40
0
 40
0
 40
0
 40
1
 40
1
 40
1
 40
1
 10
547.794286
 20
511.174452
 30
0.0
 10
547.797195
 20
507.034375
 30
0.0
 10
551.154207
 20
503.679722
 30
0.0
 10
555.294284
 20
503.679722
 30
0.0
  0
SPLINE
  5
13a
100
AcDbEntity
  8
0
 62
7
100
AcDbSpline
 70
8
 71
3
 72
8
 73
4
 74
0
 40
0
 40
0
 40
0
 40
0
 40
1
 40
1
 40
1
 40
1
 10
555.294284
 20
503.679722
 30
0.0
 10
559.434362
 20
503.679722
 30
0.0
 10
562.791373
 20
507.034375
 30
0.0
 10
562.794282
 20
511.174452
 30
0.0
  0
SPLINE
  5
13b
100
AcDbEntity
  8
0
 62
7
100
AcDbSpline
 70
8
 71
3
 72
8
 73
4
 74
0
 40
0
 40
0
 40
0
 40
0
 40
1
 40
1
 40
1
 40
1
 10
562.794282
 20
421.174446
 30
0.0
 10
562.791373
 20
425.314523
 30
0.0
 10
559.434362
 20
428.669176
 30
0.0
 10
555.294284
 20
428.669176
 30
0.0
  0
SPLINE
  5
13c
100
AcDbEntity
  8
0
 62
7
100
AcDbSpline
 70
8
 71
3
 72
8
 73
4
 74
0
 40
0
 40
0
 40
0
 40
0
 40
1
 40
1
 40
1
 40
1
 10
555.294284
 20
428.669176
 30
0.0
 10
551.154207
 20
428.669176
 30
0.0
 10
547.797195
 20
425.314523
 30
0.0
 10
547.794286
 20
421.174446
 30
0.0
  0
LINE
  5
13d
100
AcDbEntity
  8
0
 62
7
100
AcDbLine
 10
547.794286
 20
421.174446
 30
0.0
 11
547.794286
 21
331.174441
 31
0.0
  0
SPLINE
  5
13e
100
AcDbEntity
  8
0
 62
7
100
AcDbSpline
 70
8
 71
3
 72
8
 73
4
 74
0
 40
0
 40
0
 40
0
 40
0
 40
1
 40
1
 40
1
 40
1
 10
577.794279
 20
331.174441
 30
0.0
 10
577.791369
 20
335.314518
 30
0.0
 10
574.434358
 20
338.669170
 30
0.0
 10
570.294281
 20
338.669170
 30
0.0
  0
SPLINE
  5
13f
100
AcDbEntity
  8
0
 62
7
100
AcDbSpline
 70
8
 71
3
 72
8
 73
4
 74
0
 40
0
 40
0
 40
0
 40
0
 40
1
 40
1
 40
1
 40
1
 10
570.294281
 20
338.669170
 30
0.0
 10
566.154203
 20
338.669170
 30
0.0
 10
562.797192
 20
335.314518
 30
0.0
 10
562.794282
 20
331.174441
 30
0.0
  0
LINE
  5
140
100
AcDbEntity
  8
0
 62
7
100
AcDbLine
 10
577.794279
 20
331.174441
 30
0.0
 11
577.794279
 21
241.174436
 31
0.0
  0
SPLINE
  5
141
100
AcDbEntity
  8
0
 62
7
100
AcDbSpline
 70
8
 71
3
 72
8
 73
4
 74
0
 40
0
 40
0
 40
0
 40
0
 40
1
 40
1
 40
1
 40
1
 10
562.794282
 20
241.174436
 30
0.0
 10
562.797192
 20
237.034360
 30
0.0
 10
566.154203
 20
233.679707
 30
0.0
 10
570.294281
 20
233.679707
 30
0.0
  0
SPLINE
  5
142
100
AcDbEntity
  8
0
 62
7
100
AcDbSpline
 70
8
 71
3
 72
8
 73
4
 74
0
 40
0
 40
0
 40
0
 40
0
 40
1
 40
1
 40
1
 40
1
 10
570.294281
 20
233.679707
 30
0.0
 10
574.434358
 20
233.679707
 30
0.0
 10
577.791369
 20
237.034360
 30
0.0
 10
577.794279
 20
241.174436
 30
0.0
  0
SPLINE
  5
143
100
AcDbEntity
  8
0
 62
7
100
AcDbSpline
 70
8
 71
3
 72
8
 73
4
 74
0
 40
0
 40
0
 40
0
 40
0
 40
1
 40
1
 40
1
 40
1
 10
547.794286
 20
331.174441
 30
0.0
 10
547.797195
 20
327.034365
 30
0.0
 10
551.154207
 20
323.679712
 30
0.0
 10
555.294284
 20
323.679712
 30
0.0
  0
SPLINE
  5
144
100
AcDbEntity
  8
0
 62
7
100
AcDbSpline
 70
8
 71
3
 72
8
 73
4
 74
0
 40
0
 40
0
 40
0
 40
0
 40
1
 40
1
 40
1
 40
1
 10
555.294284
 20
323.679712
 30
0.0
 10
559.434362
 20
323.679712
 30
0.0
 10
562.791373
 20
327.034365
 30
0.0
 10
562.794282
 20
331.174441
 30
0.0
  0
SPLINE
  5
145
100
AcDbEntity
  8
0
 62
7
100
AcDbSpline
 70
8
 71
3
 72
8
 73
4
 74
0
 40
0
 40
0
 40
0
 40
0
 40
1
 40
1
 40
1
 40
1
 10
562.794282
 20
241.174436
 30
0.0
 10
562.791373
 20
245.314512
 30
0.0
 10
559.434362
 20
248.669165
 30
0.0
 10
555.294284
 20
248.669165
 30
0.0
  0
SPLINE
  5
146
100
AcDbEntity
  8
0
 62
7
100
AcDbSpline
 70
8
 71
3
 72
8
 73
4
 74
0
 40
0
 40
0
 40
0
 40
0
 40
1
 40
1
 40
1
 40
1
 10
555.294284
 20
248.669165
 30
0.0
 10
551.154207
 20
248.669165
 30
0.0
 10
547.797195
 20
245.314512
 30
0.0
 10
547.794286
 20
241.174436
 30
0.0
  0
LINE
  5
147
100
AcDbEntity
  8
0
 62
7
100
AcDbLine
 10
547.794286
 20
241.174436
 30
0.0
 11
547.794286
 21
191.174430
 31
0.0
  0
SPLINE
  5
148
100
AcDbEntity
  8
Bandes_noires
 62
1
100
AcDbSpline
 70
8
 71
3
 72
8
 73
4
 74
0
 40
0
 40
0
 40
0
 40
0
 40
1
 40
1
 40
1
 40
1
 10
37.796803
 20
676.672946
 30
0.0
 10
151.014077
 20
619.621606
 30
0.0
 10
284.574481
 20
619.621606
 30
0.0
 10
397.791755
 20
676.672946
 30
0.0
  0
SPLINE
  5
149
100
AcDbEntity
  8
Bandes_noires
 62
1
100
AcDbSpline
 70
8
 71
3
 72
8
 73
4
 74
0
 40
0
 40
0
 40
0
 40
0
 40
1
 40
1
 40
1
 40
1
 10
547.794154
 20
721.166179
 30
0.0
 10
495.352756
 20
716.349606
 30
0.0
 10
444.377758
 20
701.229454
 30
0.0
 10
397.791702
 20
676.672602
 30
0.0
  0
SPLINE
  5
14a
100
AcDbEntity
  8
Bandes_noires
 62
1
100
AcDbSpline
 70
8
 71
3
 72
8
 73
4
 74
0
 40
0
 40
0
 40
0
 40
0
 40
1
 40
1
 40
1
 40
1
 10
37.796803
 20
166.672929
 30
0.0
 10
151.014077
 20
109.621589
 30
0.0
 10
284.574481
 20
109.621589
 30
0.0
 10
397.791755
 20
166.672929
 30
0.0
  0
SPLINE
  5
14b
100
AcDbEntity
  8
Bandes_noires
 62
1
100
AcDbSpline
 70
8
 71
3
 72
8
 73
4
 74
0
 40
0
 40
0
 40
0
 40
0
 40
1
 40
1
 40
1
 40
1
 10
547.794154
 20
211.166162
 30
0.0
 10
495.352758
 20
206.349598
 30
0.0
 10
444.377760
 20
191.229454
 30
0.0
 10
397.791702
 20
166.672611
 30
0.0
  0
ENDSEC
  0
SECTION
  2
OBJECTS
  0
DICTIONARY
  5
C
330
0
100
AcDbDictionary
  3
ACAD_GROUP
350
D
  3
ACAD_MLINESTYLE
350
17
  0
DICTIONARY
  5
D
330
C
100
AcDbDictionary
  0
DICTIONARY
  5
1A
330
C
100
AcDbDictionary
  0
DICTIONARY
  5
17
330
C
100
AcDbDictionary
  3
STANDARD
350
18
  0
DICTIONARY
  5
19
330
C
100
AcDbDictionary
  0
ENDSEC
  0
EOF
